if (_typeface_js && _typeface_js.loadFace) _typeface_js.loadFace({"glyphs":{"S":{"x_min":-10.171875,"x_max":689.75,"ha":722,"o":"m 689 858 l 553 738 q 396 847 469 847 q 336 825 360 847 q 313 774 313 804 q 334 712 313 746 q 466 562 356 678 q 543 475 524 500 q 606 363 587 415 q 626 257 626 311 q 540 56 626 137 q 321 -25 455 -25 q -10 168 118 -25 l 133 284 q 321 152 220 152 q 402 183 369 152 q 435 258 435 214 q 415 329 435 293 q 300 464 395 365 q 170 623 201 569 q 128 765 128 696 q 188 931 128 858 q 393 1023 264 1023 q 689 858 570 1023 "},"¦":{"x_min":364,"x_max":471,"ha":834,"o":"m 364 505 l 364 1023 l 471 1023 l 471 542 l 364 505 m 364 -270 l 364 348 l 471 385 l 471 -270 l 364 -270 "},"/":{"x_min":29.578125,"x_max":609.828125,"ha":639,"o":"m 29 -178 l 478 1026 l 609 1026 l 160 -178 l 29 -178 "},"y":{"x_min":28.453125,"x_max":799.5,"ha":806,"o":"m 29 738 l 208 738 l 351 299 l 604 738 l 799 738 l 219 -270 l 28 -270 l 237 100 l 29 738 "},"Á":{"x_min":-16,"x_max":929,"ha":1028,"o":"m 522 998 l 680 998 l 929 0 l 747 0 l 694 212 l 299 212 l 185 0 l -16 0 l 522 998 m 649 388 l 569 715 l 393 388 l 649 388 m 679 1360 l 898 1360 l 612 1095 l 480 1095 l 679 1360 "},"g":{"x_min":21.1875,"x_max":863.6875,"ha":917,"o":"m 682 738 l 863 738 l 779 145 q 730 -85 755 -28 q 595 -231 690 -173 q 358 -289 501 -289 q 152 -243 240 -289 q 21 -127 64 -198 l 179 -46 q 365 -120 251 -120 q 480 -96 431 -120 q 555 -32 528 -72 q 593 87 582 8 q 365 0 493 0 q 202 43 277 0 q 83 166 126 87 q 41 343 41 246 q 97 548 41 452 q 250 700 153 644 q 452 757 347 757 q 568 732 516 757 q 670 648 620 707 l 682 738 m 459 586 q 288 516 358 586 q 219 346 219 447 q 270 214 219 264 q 409 165 322 165 q 529 195 474 165 q 617 282 584 225 q 649 404 649 339 q 596 534 649 482 q 459 586 542 586 "},"²":{"x_min":39,"x_max":458,"ha":467,"o":"m 213 840 l 90 840 q 144 973 93 925 q 280 1022 195 1022 q 408 978 359 1022 q 458 874 458 935 q 424 775 458 827 q 252 601 390 723 l 435 601 l 419 497 l 39 497 l 51 577 q 305 809 260 754 q 334 874 334 844 q 318 904 334 891 q 279 918 303 918 q 236 901 252 918 q 213 840 221 885 "},"┘":{"x_min":-12.203125,"x_max":554.109375,"ha":990,"o":"m 554 362 l -12 362 l -12 480 l 435 480 l 435 1264 l 554 1264 l 554 362 "},"ë":{"x_min":41,"x_max":816,"ha":889,"o":"m 583 216 l 742 133 q 600 21 689 62 q 404 -19 512 -19 q 138 75 235 -19 q 41 328 41 170 q 162 632 41 508 q 456 757 284 757 q 641 711 560 757 q 769 579 722 666 q 816 390 816 492 q 809 316 816 358 l 221 316 q 271 193 223 239 q 403 148 319 148 q 583 216 504 148 m 629 449 q 561 551 608 516 q 447 587 514 587 q 327 550 380 587 q 246 449 273 514 l 629 449 m 346 1042 q 405 1018 381 1042 q 430 961 430 994 q 397 881 430 914 q 318 848 364 848 q 257 871 280 848 q 234 932 234 894 q 267 1009 234 976 q 346 1042 301 1042 m 647 1042 q 706 1018 682 1042 q 731 961 731 994 q 698 881 731 914 q 619 848 665 848 q 558 871 581 848 q 535 932 535 894 q 568 1009 535 976 q 647 1042 602 1042 "},"Î":{"x_min":6,"x_max":561,"ha":389,"o":"m 174 998 l 357 998 l 218 0 l 39 0 l 174 998 m 237 1264 l 385 1264 l 561 1073 l 358 1073 l 297 1161 l 209 1073 l 6 1073 l 237 1264 "},"e":{"x_min":41,"x_max":816,"ha":889,"o":"m 583 216 l 742 133 q 600 21 689 62 q 404 -19 512 -19 q 138 75 235 -19 q 41 328 41 170 q 162 632 41 508 q 456 757 284 757 q 641 711 560 757 q 769 579 722 666 q 816 390 816 492 q 809 316 816 358 l 221 316 q 271 193 223 239 q 403 148 319 148 q 583 216 504 148 m 629 449 q 561 551 608 516 q 447 587 514 587 q 327 550 380 587 q 246 449 273 514 l 629 449 "},"Ã":{"x_min":-16,"x_max":929,"ha":1028,"o":"m 522 998 l 680 998 l 929 0 l 747 0 l 694 212 l 299 212 l 185 0 l -16 0 l 522 998 m 649 388 l 569 715 l 393 388 l 649 388 m 390 1098 l 332 1210 q 434 1262 392 1248 q 518 1276 475 1276 q 600 1261 549 1276 q 714 1239 681 1239 q 835 1274 771 1239 l 892 1168 q 796 1109 822 1119 q 714 1095 755 1095 q 613 1113 672 1095 q 553 1131 565 1128 q 516 1134 536 1134 q 390 1098 450 1134 "},"J":{"x_min":-31.875,"x_max":623.109375,"ha":667,"o":"m 435 998 l 623 998 l 529 293 q 481 96 510 154 q 399 6 453 38 q 272 -25 344 -25 q 100 27 182 -25 q -31 178 18 80 l 116 268 q 194 180 155 207 q 262 153 232 153 q 312 177 294 153 q 338 283 329 201 l 435 998 "},"»":{"x_min":-53.796875,"x_max":604,"ha":639,"o":"m 426 0 l 254 0 l 431 372 l 358 738 l 531 738 l 604 373 l 426 0 m 118 0 l -53 0 l 124 372 l 51 738 l 224 738 l 297 373 l 118 0 "},"©":{"x_min":-5,"x_max":1034,"ha":1028,"o":"m 1034 513 q 964 254 1034 374 q 774 64 894 133 q 514 -5 653 -5 q 254 64 375 -5 q 64 254 134 133 q -5 513 -5 374 q 64 772 -5 651 q 254 961 134 892 q 514 1031 374 1031 q 774 961 654 1031 q 964 772 894 892 q 1034 513 1034 651 m 927 511 q 806 803 927 683 q 515 924 686 924 q 307 869 403 924 q 156 718 211 814 q 102 514 102 623 q 156 310 102 405 q 307 160 211 215 q 513 106 403 106 q 720 160 624 106 q 872 309 817 215 q 927 511 927 403 m 666 418 l 785 418 q 704 271 773 329 q 536 214 636 214 q 326 299 408 214 q 245 522 245 385 q 325 738 245 655 q 532 821 406 821 q 698 770 633 821 q 785 622 763 719 l 666 622 q 619 699 654 672 q 533 727 584 727 q 409 672 458 727 q 360 524 360 617 q 412 368 360 427 q 536 309 464 309 q 623 339 587 309 q 666 418 659 369 "},"˘":{"x_min":122,"x_max":675,"ha":667,"o":"m 122 1063 l 272 1063 q 306 1024 283 1035 q 391 1007 340 1007 q 470 1021 437 1007 q 525 1063 504 1035 l 675 1063 q 570 924 648 975 q 372 873 492 873 q 184 925 247 873 q 122 1063 121 978 "},"ò":{"x_min":41,"x_max":812,"ha":889,"o":"m 463 757 q 642 711 561 757 q 767 582 722 666 q 812 395 812 499 q 689 102 812 223 q 385 -19 566 -19 q 134 76 228 -19 q 41 325 41 171 q 167 634 41 511 q 463 757 294 757 m 450 585 q 280 505 339 585 q 221 332 221 425 q 269 199 221 250 q 398 149 317 149 q 573 225 513 149 q 633 401 633 302 q 582 534 633 483 q 450 585 531 585 m 299 1137 l 516 1137 l 640 872 l 508 872 l 299 1137 "},"^":{"x_min":73.96875,"x_max":759.359375,"ha":834,"o":"m 338 998 l 494 998 l 759 248 l 595 248 l 417 755 l 238 248 l 73 248 l 338 998 "},"┤":{"x_min":-12.203125,"x_max":554.109375,"ha":990,"o":"m 435 -421 l 435 362 l -12 362 l -12 480 l 435 480 l 435 1264 l 554 1264 l 554 -421 l 435 -421 "},"«":{"x_min":-2,"x_max":655.796875,"ha":639,"o":"m 176 738 l 347 738 l 170 366 l 243 0 l 71 0 l -2 364 l 176 738 m 484 738 l 655 738 l 477 365 l 550 0 l 378 0 l 305 364 l 484 738 "},"D":{"x_min":47,"x_max":917,"ha":973,"o":"m 182 998 l 341 998 q 672 945 563 998 q 849 780 781 892 q 917 520 917 667 q 844 242 917 369 q 662 58 772 116 q 357 0 552 0 l 47 0 l 182 998 m 347 822 l 259 174 l 321 174 q 527 197 464 174 q 671 313 617 231 q 726 516 726 395 q 687 682 726 615 q 580 785 649 749 q 395 822 510 822 l 347 822 "},"┼":{"x_min":-12.203125,"x_max":1002.40625,"ha":990,"o":"m 435 362 l -12 362 l -12 480 l 435 480 l 435 1264 l 554 1264 l 554 480 l 1002 480 l 1002 362 l 554 362 l 554 -421 l 435 -421 l 435 362 "},"ⁿ":{"x_min":35.140625,"x_max":459.3125,"ha":464,"o":"m 98 852 l 231 852 l 226 818 q 333 864 277 864 q 424 821 390 864 q 459 708 459 778 q 453 635 459 680 l 420 390 l 285 390 l 318 635 q 324 695 324 677 q 285 745 324 745 q 240 724 261 745 q 211 676 219 704 q 190 554 204 649 l 168 390 l 35 390 l 98 852 "},"ÿ":{"x_min":28.453125,"x_max":799.5,"ha":806,"o":"m 29 738 l 208 738 l 351 299 l 604 738 l 799 738 l 219 -270 l 28 -270 l 237 100 l 29 738 m 302 1042 q 361 1018 337 1042 q 386 961 386 994 q 353 881 386 914 q 274 848 320 848 q 213 871 236 848 q 190 932 190 894 q 223 1009 190 976 q 302 1042 257 1042 m 603 1042 q 662 1018 638 1042 q 687 961 687 994 q 654 881 687 914 q 575 848 621 848 q 514 871 537 848 q 491 932 491 894 q 524 1009 491 976 q 603 1042 558 1042 "},"í":{"x_min":7,"x_max":510,"ha":333,"o":"m 107 738 l 287 738 l 187 0 l 7 0 l 107 738 m 291 1137 l 510 1137 l 224 872 l 92 872 l 291 1137 "},"├":{"x_min":436.09375,"x_max":1003.09375,"ha":990,"o":"m 436 -421 l 436 1264 l 554 1264 l 554 480 l 1003 480 l 1003 362 l 554 362 l 554 -421 l 436 -421 "},"ˆ":{"x_min":155,"x_max":710,"ha":750,"o":"m 386 1041 l 534 1041 l 710 850 l 507 850 l 446 938 l 358 850 l 155 850 l 386 1041 "},"w":{"x_min":35,"x_max":1107,"ha":1111,"o":"m 35 738 l 208 738 l 311 342 l 526 738 l 598 738 l 700 342 l 914 738 l 1107 738 l 707 0 l 618 0 l 518 390 l 308 0 l 222 0 l 35 738 "},"$":{"x_min":-10.171875,"x_max":726.0625,"ha":778,"o":"m 419 1090 l 538 1090 l 526 1008 q 632 962 587 992 q 726 871 677 931 l 595 769 q 509 842 548 822 q 430 862 470 862 q 343 830 379 862 q 307 758 307 798 q 313 722 307 737 q 345 684 323 701 q 425 631 353 676 q 567 534 531 565 q 662 420 631 480 q 693 288 693 360 q 653 138 693 208 q 548 26 614 67 q 381 -23 483 -14 l 356 -201 l 238 -201 l 263 -23 q 105 44 167 -4 q -10 194 42 92 l 152 276 q 350 134 225 134 q 466 176 420 134 q 513 277 513 218 q 481 364 513 324 q 336 471 450 404 q 170 608 213 544 q 127 746 127 671 q 199 928 127 844 q 410 1019 272 1011 l 419 1090 "},"\\":{"x_min":154.734375,"x_max":734,"ha":889,"o":"m 734 -178 l 602 -178 l 154 1026 l 285 1026 l 734 -178 "},"Ì":{"x_min":39,"x_max":425,"ha":389,"o":"m 174 998 l 357 998 l 218 0 l 39 0 l 174 998 m 84 1360 l 301 1360 l 425 1095 l 293 1095 l 84 1360 "},"µ":{"x_min":-83.78125,"x_max":753.59375,"ha":800,"o":"m -83 -270 l 53 738 l 232 738 l 180 356 q 171 271 171 297 q 213 176 171 214 q 318 138 256 138 q 410 160 367 138 q 481 227 453 183 q 523 356 509 271 l 575 738 l 753 738 l 653 0 l 475 0 l 486 86 q 396 5 443 29 q 295 -19 349 -19 q 206 6 245 -19 q 143 86 168 31 l 94 -270 l -83 -270 "},"Ç":{"x_min":59,"x_max":1033.484375,"ha":1083,"o":"m 1033 868 l 897 742 q 789 820 853 793 q 651 848 725 848 q 451 794 546 848 q 302 652 355 740 q 249 465 249 564 q 342 239 249 329 q 582 150 436 150 q 853 241 739 150 l 964 95 q 570 -25 794 -25 q 302 34 412 -25 q 125 210 192 94 q 59 460 59 325 q 138 737 59 605 q 351 946 217 870 q 646 1023 486 1023 q 1033 868 870 1023 m 484 10 l 599 10 l 587 -20 q 648 -55 627 -30 q 670 -110 670 -80 q 617 -213 670 -168 q 477 -258 564 -258 q 330 -226 404 -258 l 367 -138 q 461 -155 415 -155 q 516 -139 496 -155 q 537 -101 537 -123 q 525 -76 537 -84 q 483 -68 514 -68 l 448 -70 l 484 10 "},"-":{"x_min":84,"x_max":471,"ha":583,"o":"m 105 450 l 471 450 l 449 285 l 84 285 l 105 450 "},"Q":{"x_min":56,"x_max":1130.3125,"ha":1167,"o":"m 954 151 l 1130 -47 l 892 -47 l 813 42 q 523 -25 680 -25 q 183 101 310 -25 q 56 433 56 227 q 133 732 56 595 q 343 945 211 868 q 636 1023 476 1023 q 980 890 846 1023 q 1114 554 1114 758 q 1071 337 1114 444 q 954 151 1028 229 m 832 289 q 925 545 925 399 q 844 764 925 682 q 631 846 764 846 q 438 793 526 846 q 296 644 350 741 q 242 443 242 546 q 317 235 242 320 q 532 150 393 150 q 689 181 618 150 l 540 349 l 780 349 l 832 289 "},"M":{"x_min":0.859375,"x_max":1113,"ha":1250,"o":"m 254 998 l 425 998 l 593 302 l 937 998 l 1099 998 l 1113 0 l 938 0 l 930 597 l 634 0 l 490 0 l 339 626 l 179 0 l 0 0 l 254 998 "},"╗":{"x_min":-12.203125,"x_max":682.96875,"ha":990,"o":"m 564 -421 l 564 491 l -12 491 l -12 609 l 682 609 l 682 -421 l 564 -421 m 306 233 l -12 233 l -12 352 l 425 352 l 425 -421 l 306 -421 l 306 233 "},"C":{"x_min":59,"x_max":1033.484375,"ha":1083,"o":"m 1033 868 l 897 742 q 789 820 853 793 q 651 848 725 848 q 451 794 546 848 q 302 652 355 740 q 249 465 249 564 q 342 239 249 329 q 582 150 436 150 q 853 241 739 150 l 964 95 q 570 -25 794 -25 q 302 34 412 -25 q 125 210 192 94 q 59 460 59 325 q 138 737 59 605 q 351 946 217 870 q 646 1023 486 1023 q 1033 868 870 1023 "},"!":{"x_min":31,"x_max":363,"ha":389,"o":"m 176 1023 l 363 1023 l 261 294 l 74 294 l 176 1023 m 145 209 q 225 175 191 209 q 259 95 259 142 q 225 14 259 48 q 145 -19 191 -19 q 64 14 97 -19 q 31 95 31 48 q 64 175 31 142 q 145 209 97 209 "},"ç":{"x_min":41,"x_max":805.5,"ha":889,"o":"m 805 585 l 652 502 q 476 585 586 585 q 345 553 402 585 q 254 462 288 521 q 221 336 221 402 q 274 199 221 250 q 421 148 328 148 q 620 235 551 148 l 763 134 q 613 21 702 62 q 412 -19 523 -19 q 140 75 239 -19 q 41 326 41 170 q 163 631 41 505 q 480 757 286 757 q 805 585 698 757 m 387 10 l 502 10 l 490 -20 q 551 -55 530 -30 q 573 -110 573 -80 q 520 -213 573 -168 q 380 -258 467 -258 q 233 -226 307 -258 l 270 -138 q 364 -155 318 -155 q 419 -139 399 -155 q 440 -101 440 -123 q 428 -76 440 -84 q 386 -68 417 -68 l 351 -70 l 387 10 "},"È":{"x_min":35,"x_max":708,"ha":722,"o":"m 170 998 l 708 998 l 684 821 l 336 821 l 307 615 l 658 615 l 635 439 l 283 439 l 246 174 l 600 174 l 578 0 l 35 0 l 170 998 m 258 1360 l 475 1360 l 599 1095 l 467 1095 l 258 1360 "},"{":{"x_min":-11,"x_max":555.734375,"ha":472,"o":"m -11 265 l 12 428 q 107 453 73 430 q 164 531 140 476 q 194 672 180 571 q 219 812 208 772 q 273 921 238 883 q 378 982 308 959 q 519 998 424 998 l 555 998 l 532 835 q 432 825 456 835 q 397 797 408 816 q 373 696 388 782 q 334 504 346 538 q 284 414 313 449 q 198 345 254 379 q 287 170 287 289 q 274 -4 287 120 q 268 -83 268 -67 q 299 -132 268 -117 q 395 -143 320 -143 l 371 -306 l 336 -306 q 185 -286 232 -306 q 112 -229 137 -267 q 87 -130 87 -190 q 101 9 87 -83 q 114 140 114 93 q 80 235 114 198 q -11 265 55 260 "},"X":{"x_min":10.65625,"x_max":937,"ha":945,"o":"m 169 998 l 361 998 l 501 690 l 719 998 l 937 998 l 586 503 l 814 0 l 620 0 l 468 337 l 229 0 l 10 0 l 383 524 l 169 998 "},"ô":{"x_min":41,"x_max":812,"ha":889,"o":"m 463 757 q 642 711 561 757 q 767 582 722 666 q 812 395 812 499 q 689 102 812 223 q 385 -19 566 -19 q 134 76 228 -19 q 41 325 41 171 q 167 634 41 511 q 463 757 294 757 m 450 585 q 280 505 339 585 q 221 332 221 425 q 269 199 221 250 q 398 149 317 149 q 573 225 513 149 q 633 401 633 302 q 582 534 633 483 q 450 585 531 585 m 454 1041 l 602 1041 l 778 850 l 575 850 l 514 938 l 426 850 l 223 850 l 454 1041 "},"¼":{"x_min":145,"x_max":1128.15625,"ha":1167,"o":"m 186 1010 l 372 1010 l 302 497 l 178 497 l 234 906 l 145 906 l 186 1010 m 199 -25 l 869 1023 l 987 1023 l 317 -25 l 199 -25 m 1008 526 l 1120 526 l 1072 195 l 1128 195 l 1112 95 l 1058 95 l 1044 0 l 932 0 l 944 95 l 692 95 l 706 190 l 1008 526 m 980 359 l 839 195 l 958 195 l 980 359 "},"#":{"x_min":42,"x_max":792,"ha":834,"o":"m 753 460 l 753 325 l 592 325 l 548 0 l 412 0 l 456 325 l 325 325 l 282 0 l 147 0 l 191 325 l 42 325 l 42 460 l 209 460 l 228 587 l 85 587 l 85 722 l 245 722 l 286 1023 l 418 1023 l 379 722 l 510 722 l 551 1023 l 687 1023 l 646 722 l 792 722 l 792 587 l 628 587 l 611 460 l 753 460 m 491 587 l 360 587 l 343 460 l 474 460 l 491 587 "},"Ê":{"x_min":35,"x_max":735,"ha":722,"o":"m 170 998 l 708 998 l 684 821 l 336 821 l 307 615 l 658 615 l 635 439 l 283 439 l 246 174 l 600 174 l 578 0 l 35 0 l 170 998 m 411 1264 l 559 1264 l 735 1073 l 532 1073 l 471 1161 l 383 1073 l 180 1073 l 411 1264 "},")":{"x_min":-152,"x_max":387,"ha":528,"o":"m 83 -289 l -152 -289 q 194 558 194 42 q 160 797 194 691 q 36 1042 126 902 l 270 1042 q 360 808 333 917 q 387 576 387 700 q 352 258 387 417 q 254 -28 317 99 q 83 -289 191 -156 "},"Å":{"x_min":-16,"x_max":929,"ha":1028,"o":"m 522 998 l 680 998 l 929 0 l 747 0 l 694 212 l 299 212 l 185 0 l -16 0 l 522 998 m 649 388 l 569 715 l 393 388 l 649 388 m 653 1398 q 744 1361 708 1398 q 780 1266 780 1325 q 727 1147 780 1199 q 608 1095 675 1095 q 516 1132 552 1095 q 480 1226 480 1169 q 531 1347 480 1296 q 653 1398 582 1398 m 640 1311 q 593 1290 613 1311 q 574 1242 574 1270 q 587 1205 574 1219 q 621 1191 600 1191 q 666 1211 646 1191 q 686 1258 686 1231 q 672 1296 686 1281 q 640 1311 659 1311 "},"╚":{"x_min":307.234375,"x_max":1002.40625,"ha":990,"o":"m 425 1264 l 425 352 l 1002 352 l 1002 233 l 307 233 l 307 1264 l 425 1264 m 683 609 l 1002 609 l 1002 491 l 564 491 l 564 1264 l 683 1264 l 683 609 "},"ø":{"x_min":30.5625,"x_max":858.125,"ha":917,"o":"m 747 635 q 827 395 827 533 q 704 102 827 223 q 401 -19 581 -19 q 213 24 289 -19 l 109 -93 l 30 -23 l 133 94 q 55 324 55 191 q 111 541 55 442 q 266 698 167 640 q 474 757 365 757 q 667 705 583 757 l 777 832 l 858 762 l 747 635 m 257 237 l 547 568 q 462 585 510 585 q 294 504 353 585 q 236 333 236 424 q 257 237 236 280 m 625 495 l 334 163 q 413 149 369 149 q 587 225 526 149 q 648 400 648 301 q 625 495 648 455 "},"â":{"x_min":39,"x_max":854.84375,"ha":917,"o":"m 673 738 l 854 738 l 752 0 l 573 0 l 583 79 q 473 2 524 24 q 358 -19 422 -19 q 125 88 212 -19 q 39 339 39 196 q 94 547 39 449 q 242 701 149 646 q 438 757 336 757 q 564 725 506 757 q 659 634 621 694 l 673 738 m 402 142 q 518 171 468 142 q 601 265 567 201 q 635 395 635 329 q 584 536 635 483 q 450 590 533 590 q 287 518 354 590 q 220 334 220 447 q 270 194 220 247 q 402 142 321 142 m 468 1041 l 616 1041 l 792 850 l 589 850 l 528 938 l 440 850 l 237 850 l 468 1041 "},"}":{"x_min":-141.125,"x_max":425,"ha":472,"o":"m 425 427 l 401 266 q 306 239 340 262 q 250 162 273 217 q 218 20 232 121 q 194 -120 204 -80 q 140 -229 175 -191 q 35 -291 105 -267 q -105 -306 -11 -306 l -141 -306 l -118 -143 q -18 -133 -41 -143 q 17 -105 5 -124 q 40 -4 25 -90 q 80 187 67 153 q 129 278 100 243 q 215 346 158 313 q 125 521 125 403 q 139 696 125 571 q 146 776 146 759 q 113 825 146 809 q 18 835 93 835 l 42 998 l 77 998 q 228 978 181 998 q 300 920 275 959 q 326 822 326 882 q 312 681 326 774 q 299 551 299 598 q 333 456 299 493 q 425 427 357 430 "},"Ä":{"x_min":-16,"x_max":929,"ha":1028,"o":"m 522 998 l 680 998 l 929 0 l 747 0 l 694 212 l 299 212 l 185 0 l -16 0 l 522 998 m 649 388 l 569 715 l 393 388 l 649 388 m 480 1265 q 539 1241 515 1265 q 564 1184 564 1217 q 531 1104 564 1137 q 452 1071 498 1071 q 391 1094 414 1071 q 368 1155 368 1117 q 401 1232 368 1199 q 480 1265 435 1265 m 781 1265 q 840 1241 816 1265 q 865 1184 865 1217 q 832 1104 865 1137 q 753 1071 799 1071 q 692 1094 715 1071 q 669 1155 669 1117 q 702 1232 669 1199 q 781 1265 736 1265 "},"¸":{"x_min":25.78125,"x_max":365,"ha":472,"o":"m 179 10 l 294 10 l 282 -20 q 343 -55 322 -30 q 365 -110 365 -80 q 312 -213 365 -168 q 172 -258 259 -258 q 25 -226 99 -258 l 62 -138 q 156 -155 110 -155 q 211 -139 191 -155 q 232 -101 232 -123 q 220 -76 232 -84 q 178 -68 209 -68 l 143 -70 l 179 10 "},"a":{"x_min":39,"x_max":854.84375,"ha":917,"o":"m 673 738 l 854 738 l 752 0 l 573 0 l 583 79 q 473 2 524 24 q 358 -19 422 -19 q 125 88 212 -19 q 39 339 39 196 q 94 547 39 449 q 242 701 149 646 q 438 757 336 757 q 564 725 506 757 q 659 634 621 694 l 673 738 m 402 142 q 518 171 468 142 q 601 265 567 201 q 635 395 635 329 q 584 536 635 483 q 450 590 533 590 q 287 518 354 590 q 220 334 220 447 q 270 194 220 247 q 402 142 321 142 "},"=":{"x_min":78,"x_max":756,"ha":834,"o":"m 78 729 l 756 729 l 756 559 l 78 559 l 78 729 m 78 439 l 756 439 l 756 269 l 78 269 l 78 439 "},"N":{"x_min":48.203125,"x_max":981.609375,"ha":1028,"o":"m 184 998 l 345 998 l 705 319 l 797 998 l 981 998 l 845 0 l 684 0 l 321 685 l 228 0 l 48 0 l 184 998 "},"˚":{"x_min":174,"x_max":474,"ha":500,"o":"m 347 1175 q 438 1138 402 1175 q 474 1043 474 1102 q 421 924 474 976 q 302 872 369 872 q 210 909 246 872 q 174 1003 174 946 q 225 1124 174 1073 q 347 1175 276 1175 m 334 1088 q 287 1067 307 1088 q 268 1019 268 1047 q 281 982 268 996 q 315 968 294 968 q 360 988 340 968 q 380 1035 380 1008 q 366 1073 380 1058 q 334 1088 353 1088 "},"ú":{"x_min":75.546875,"x_max":769.1875,"ha":834,"o":"m 134 738 l 313 738 l 262 360 q 254 267 254 298 q 287 185 254 218 q 375 152 321 152 q 483 194 445 152 q 538 368 520 237 l 588 738 l 769 738 l 715 341 q 653 133 696 206 q 539 20 610 59 q 371 -19 467 -19 q 155 59 235 -19 q 75 261 75 137 q 93 457 75 337 l 134 738 m 540 1137 l 759 1137 l 473 872 l 341 872 l 540 1137 "},"2":{"x_min":21,"x_max":699,"ha":778,"o":"m 288 692 l 106 692 q 150 869 110 793 q 258 983 191 944 q 412 1023 326 1023 q 617 942 536 1023 q 699 742 699 862 q 635 536 699 647 q 324 170 571 425 l 658 170 l 635 0 l 21 0 l 38 130 q 370 480 294 391 q 497 657 473 600 q 517 742 517 701 q 486 820 517 789 q 411 851 455 851 q 333 815 364 851 q 288 692 301 779 "},"ü":{"x_min":75.546875,"x_max":769.1875,"ha":834,"o":"m 134 738 l 313 738 l 262 360 q 254 267 254 298 q 287 185 254 218 q 375 152 321 152 q 483 194 445 152 q 538 368 520 237 l 588 738 l 769 738 l 715 341 q 653 133 696 206 q 539 20 610 59 q 371 -19 467 -19 q 155 59 235 -19 q 75 261 75 137 q 93 457 75 337 l 134 738 m 317 1042 q 376 1018 352 1042 q 401 961 401 994 q 368 881 401 914 q 289 848 335 848 q 228 871 251 848 q 205 932 205 894 q 238 1009 205 976 q 317 1042 272 1042 m 618 1042 q 677 1018 653 1042 q 702 961 702 994 q 669 881 702 914 q 590 848 636 848 q 529 871 552 848 q 506 932 506 894 q 539 1009 506 976 q 618 1042 573 1042 "},"¯":{"x_min":70,"x_max":781,"ha":695,"o":"m 70 1143 l 781 1143 l 781 1074 l 70 1074 l 70 1143 "},"Z":{"x_min":12,"x_max":688.71875,"ha":695,"o":"m 124 998 l 688 998 l 291 174 l 606 174 l 582 0 l 12 0 l 409 822 l 99 822 l 124 998 "},"u":{"x_min":75.546875,"x_max":769.1875,"ha":834,"o":"m 134 738 l 313 738 l 262 360 q 254 267 254 298 q 287 185 254 218 q 375 152 321 152 q 483 194 445 152 q 538 368 520 237 l 588 738 l 769 738 l 715 341 q 653 133 696 206 q 539 20 610 59 q 371 -19 467 -19 q 155 59 235 -19 q 75 261 75 137 q 93 457 75 337 l 134 738 "},"˜":{"x_min":110,"x_max":670,"ha":667,"o":"m 168 875 l 110 987 q 212 1039 170 1025 q 296 1053 253 1053 q 378 1038 327 1053 q 492 1016 459 1016 q 613 1051 549 1016 l 670 945 q 574 886 600 896 q 492 872 533 872 q 391 890 450 872 q 331 908 343 905 q 294 911 314 911 q 168 875 228 911 "},"Ó":{"x_min":56,"x_max":1114,"ha":1167,"o":"m 641 1023 q 980 890 846 1023 q 1114 554 1114 758 q 1034 260 1114 398 q 824 48 955 122 q 523 -25 693 -25 q 183 101 310 -25 q 56 433 56 227 q 207 835 56 667 q 641 1023 377 1023 m 634 846 q 438 794 527 846 q 296 644 350 742 q 242 443 242 547 q 317 235 242 320 q 533 150 392 150 q 810 265 696 150 q 925 545 925 380 q 844 763 925 681 q 634 846 764 846 m 750 1360 l 969 1360 l 683 1095 l 551 1095 l 750 1360 "},"k":{"x_min":31,"x_max":812.3125,"ha":806,"o":"m 170 1023 l 348 1023 l 274 481 l 564 738 l 812 738 l 439 408 l 765 0 l 548 0 l 258 361 l 208 0 l 31 0 l 170 1023 "},"ˇ":{"x_min":168,"x_max":723,"ha":750,"o":"m 491 850 l 343 850 l 168 1041 l 370 1041 l 431 952 l 519 1041 l 723 1041 l 491 850 "},"Ù":{"x_min":85.703125,"x_max":853.34375,"ha":889,"o":"m 176 998 l 364 998 l 280 381 q 269 268 269 301 q 304 180 269 211 q 405 149 339 149 q 499 172 459 149 q 546 231 528 190 q 581 394 564 272 l 663 998 l 853 998 l 772 402 q 706 138 747 218 q 588 16 665 58 q 401 -25 511 -25 q 169 54 252 -25 q 85 271 85 133 q 101 447 85 331 l 176 998 m 340 1360 l 557 1360 l 681 1095 l 549 1095 l 340 1360 "},"¢":{"x_min":11.5,"x_max":792.84375,"ha":778,"o":"m 704 918 l 792 861 l 685 695 q 752 642 721 672 l 652 516 q 597 559 626 540 l 330 148 q 391 139 365 139 q 492 167 437 139 q 588 244 546 195 l 685 113 q 533 7 608 39 q 376 -25 459 -25 q 236 3 303 -25 l 100 -205 l 11 -148 l 148 63 q 47 319 47 166 q 105 541 47 437 q 263 704 164 646 q 475 762 362 762 q 589 741 530 762 l 704 918 m 496 598 l 463 600 q 291 520 365 600 q 217 329 217 441 q 248 216 217 275 l 496 598 "},"ß":{"x_min":31,"x_max":770,"ha":834,"o":"m 369 495 l 390 637 q 497 657 449 637 q 566 710 544 678 q 589 779 589 742 q 559 844 589 817 q 482 872 529 872 q 366 820 413 872 q 304 655 318 769 l 299 615 l 211 0 l 31 0 l 111 587 q 179 861 135 779 q 306 992 223 943 q 492 1042 389 1042 q 694 972 618 1042 q 770 799 770 903 q 719 648 770 713 q 580 555 669 583 q 746 302 746 472 q 649 73 746 166 q 402 -19 552 -19 q 277 4 335 -19 l 297 174 q 392 149 343 149 q 518 198 467 149 q 570 320 570 247 q 516 445 570 396 q 369 495 462 494 "},"╕":{"x_min":-12.203125,"x_max":554.109375,"ha":990,"o":"m 435 233 l -12 233 l -12 352 l 435 352 l 435 491 l -12 491 l -12 609 l 554 609 l 554 -421 l 435 -421 l 435 233 "},"└":{"x_min":436.09375,"x_max":1003.09375,"ha":990,"o":"m 436 362 l 436 1264 l 554 1264 l 554 480 l 1003 480 l 1003 362 l 436 362 "},"é":{"x_min":41,"x_max":816,"ha":889,"o":"m 583 216 l 742 133 q 600 21 689 62 q 404 -19 512 -19 q 138 75 235 -19 q 41 328 41 170 q 162 632 41 508 q 456 757 284 757 q 641 711 560 757 q 769 579 722 666 q 816 390 816 492 q 809 316 816 358 l 221 316 q 271 193 223 239 q 403 148 319 148 q 583 216 504 148 m 629 449 q 561 551 608 516 q 447 587 514 587 q 327 550 380 587 q 246 449 273 514 l 629 449 m 569 1137 l 788 1137 l 502 872 l 370 872 l 569 1137 "},"s":{"x_min":-18.984375,"x_max":535.703125,"ha":611,"o":"m 535 634 l 449 496 q 379 569 416 546 q 311 593 343 593 q 269 579 286 593 q 253 548 253 565 q 266 516 253 532 q 344 453 279 500 q 481 325 448 378 q 514 209 514 272 q 446 54 514 127 q 250 -19 379 -19 q 116 10 176 -19 q -18 120 55 40 l 93 250 q 259 150 169 150 q 316 167 295 150 q 338 208 338 184 q 321 247 338 227 q 232 318 305 267 q 116 421 148 378 q 72 547 72 480 q 142 698 72 640 q 307 757 212 757 q 435 725 375 757 q 535 634 495 693 "},"B":{"x_min":47,"x_max":720,"ha":806,"o":"m 182 998 l 338 998 q 548 967 479 998 q 659 872 617 936 q 702 733 702 808 q 672 615 702 671 q 586 523 642 560 q 720 276 720 430 q 677 129 720 196 q 572 31 635 63 q 391 0 510 0 l 47 0 l 182 998 m 317 602 l 350 602 q 453 613 426 602 q 499 654 480 624 q 518 722 518 685 q 501 782 518 757 q 457 816 484 807 q 347 825 430 825 l 317 602 m 259 177 l 372 172 q 496 206 457 172 q 535 297 535 239 q 511 372 535 339 q 447 419 487 406 q 294 434 407 433 l 259 177 "},"?":{"x_min":58,"x_max":716,"ha":778,"o":"m 235 745 l 58 745 q 114 898 67 830 q 241 1004 162 966 q 419 1042 320 1042 q 633 963 550 1042 q 716 776 716 885 q 552 517 716 637 q 458 441 477 462 q 426 384 440 420 q 409 296 413 349 l 235 296 q 275 491 238 418 q 413 631 313 563 q 515 714 494 685 q 537 774 537 744 q 500 844 537 814 q 402 874 463 874 q 235 745 267 874 m 287 209 q 367 175 334 209 q 401 95 401 142 q 367 14 401 48 q 287 -19 334 -19 q 206 14 239 -19 q 173 95 173 48 q 206 175 173 142 q 287 209 239 209 "},"H":{"x_min":46,"x_max":900.171875,"ha":945,"o":"m 181 998 l 369 998 l 317 621 l 660 621 l 711 998 l 900 998 l 763 0 l 576 0 l 637 453 l 294 453 l 232 0 l 46 0 l 181 998 "},"î":{"x_min":-55,"x_max":500,"ha":333,"o":"m 107 738 l 287 738 l 187 0 l 7 0 l 107 738 m 176 1041 l 324 1041 l 500 850 l 297 850 l 236 938 l 148 850 l -55 850 l 176 1041 "},"c":{"x_min":41,"x_max":805.5,"ha":889,"o":"m 805 585 l 652 502 q 476 585 586 585 q 345 553 402 585 q 254 462 288 521 q 221 336 221 402 q 274 199 221 250 q 421 148 328 148 q 620 235 551 148 l 763 134 q 613 21 702 62 q 412 -19 523 -19 q 140 75 239 -19 q 41 326 41 170 q 163 631 41 505 q 480 757 286 757 q 805 585 698 757 "},"¶":{"x_min":111,"x_max":717,"ha":834,"o":"m 375 -257 l 375 481 q 180 552 250 481 q 111 748 111 622 q 186 956 111 886 q 431 1026 262 1026 l 717 1026 l 717 947 l 661 947 l 661 -257 l 567 -257 l 567 947 l 469 947 l 469 -257 l 375 -257 "},"¥":{"x_min":13.15625,"x_max":804.328125,"ha":778,"o":"m 44 998 l 227 998 l 349 605 l 596 998 l 804 998 l 489 497 l 636 497 l 622 384 l 420 384 l 409 306 l 609 306 l 596 192 l 393 192 l 367 0 l 180 0 l 206 192 l 13 192 l 27 306 l 221 306 l 232 384 l 38 384 l 55 497 l 199 497 l 44 998 "},"(":{"x_min":112,"x_max":651,"ha":528,"o":"m 416 1042 l 651 1042 q 305 194 305 710 q 338 -44 305 61 q 463 -289 372 -149 l 229 -289 q 138 -56 165 -165 q 112 175 112 52 q 146 493 112 334 q 244 781 181 653 q 416 1042 307 909 "},"U":{"x_min":85.703125,"x_max":853.34375,"ha":889,"o":"m 176 998 l 364 998 l 280 381 q 269 268 269 301 q 304 180 269 211 q 405 149 339 149 q 499 172 459 149 q 546 231 528 190 q 581 394 564 272 l 663 998 l 853 998 l 772 402 q 706 138 747 218 q 588 16 665 58 q 401 -25 511 -25 q 169 54 252 -25 q 85 271 85 133 q 101 447 85 331 l 176 998 "},"╫":{"x_min":-12.203125,"x_max":1002.40625,"ha":990,"o":"m 306 -421 l 306 362 l -12 362 l -12 480 l 306 480 l 306 1264 l 425 1264 l 425 480 l 564 480 l 564 1264 l 682 1264 l 682 480 l 1002 480 l 1002 362 l 682 362 l 682 -421 l 564 -421 l 564 362 l 425 362 l 425 -421 l 306 -421 "},"Ñ":{"x_min":48.203125,"x_max":981.609375,"ha":1028,"o":"m 184 998 l 345 998 l 705 319 l 797 998 l 981 998 l 845 0 l 684 0 l 321 685 l 228 0 l 48 0 l 184 998 m 388 1098 l 330 1210 q 432 1262 390 1248 q 516 1276 473 1276 q 598 1261 547 1276 q 712 1239 679 1239 q 833 1274 769 1239 l 890 1168 q 794 1109 820 1119 q 712 1095 753 1095 q 611 1113 670 1095 q 551 1131 563 1128 q 514 1134 534 1134 q 388 1098 448 1134 "},"F":{"x_min":37,"x_max":660,"ha":667,"o":"m 172 998 l 660 998 l 637 821 l 337 821 l 308 615 l 610 615 l 587 439 l 285 439 l 225 0 l 37 0 l 172 998 "},"╤":{"x_min":-12.203125,"x_max":1002.40625,"ha":990,"o":"m 1002 491 l -12 491 l -12 609 l 1002 609 l 1002 491 m 435 233 l -12 233 l -12 352 l 1002 352 l 1002 233 l 554 233 l 554 -421 l 435 -421 l 435 233 "},"­":{"x_min":84,"x_max":471,"ha":583,"o":"m 105 450 l 471 450 l 449 285 l 84 285 l 105 450 "},":":{"x_min":26,"x_max":332,"ha":389,"o":"m 218 757 q 298 723 264 757 q 332 643 332 690 q 298 563 332 596 q 218 530 264 530 q 137 563 170 530 q 104 643 104 596 q 136 724 104 691 q 218 757 169 757 m 140 209 q 220 175 186 209 q 254 95 254 142 q 220 14 254 48 q 140 -19 186 -19 q 59 14 92 -19 q 26 95 26 48 q 59 175 26 142 q 140 209 92 209 "},"╓":{"x_min":307.234375,"x_max":1003.09375,"ha":990,"o":"m 307 -421 l 307 480 l 1003 480 l 1003 362 l 683 362 l 683 -421 l 564 -421 l 564 352 l 425 352 l 425 -421 l 307 -421 "},"Û":{"x_min":85.703125,"x_max":853.34375,"ha":889,"o":"m 176 998 l 364 998 l 280 381 q 269 268 269 301 q 304 180 269 211 q 405 149 339 149 q 499 172 459 149 q 546 231 528 190 q 581 394 564 272 l 663 998 l 853 998 l 772 402 q 706 138 747 218 q 588 16 665 58 q 401 -25 511 -25 q 169 54 252 -25 q 85 271 85 133 q 101 447 85 331 l 176 998 m 496 1264 l 644 1264 l 820 1073 l 617 1073 l 556 1161 l 468 1073 l 265 1073 l 496 1264 "},"*":{"x_min":72,"x_max":613,"ha":611,"o":"m 261 1023 l 433 1023 l 380 819 l 533 963 l 613 814 l 406 761 l 613 702 l 523 555 l 375 702 l 427 499 l 261 499 l 313 702 l 162 555 l 72 702 l 280 761 l 72 819 l 162 970 l 313 819 l 261 1023 "},"°":{"x_min":73,"x_max":540,"ha":555,"o":"m 540 789 q 471 623 540 691 q 305 556 403 556 q 140 623 208 556 q 73 791 73 691 q 142 955 73 887 q 307 1023 211 1023 q 471 955 403 1023 q 540 789 540 887 m 459 788 q 415 901 459 855 q 308 947 371 947 q 199 901 244 947 q 154 789 154 855 q 199 678 154 725 q 307 632 245 632 q 414 677 369 632 q 459 788 459 723 "},"V":{"x_min":71.53125,"x_max":1020.703125,"ha":973,"o":"m 71 998 l 254 998 l 432 277 l 818 998 l 1020 998 l 486 0 l 318 0 l 71 998 "},"å":{"x_min":39,"x_max":854.84375,"ha":917,"o":"m 673 738 l 854 738 l 752 0 l 573 0 l 583 79 q 473 2 524 24 q 358 -19 422 -19 q 125 88 212 -19 q 39 339 39 196 q 94 547 39 449 q 242 701 149 646 q 438 757 336 757 q 564 725 506 757 q 659 634 621 694 l 673 738 m 402 142 q 518 171 468 142 q 601 265 567 201 q 635 395 635 329 q 584 536 635 483 q 450 590 533 590 q 287 518 354 590 q 220 334 220 447 q 270 194 220 247 q 402 142 321 142 m 554 1175 q 645 1138 609 1175 q 681 1043 681 1102 q 628 924 681 976 q 509 872 576 872 q 417 909 453 872 q 381 1003 381 946 q 432 1124 381 1073 q 554 1175 483 1175 m 541 1088 q 494 1067 514 1088 q 475 1019 475 1047 q 488 982 475 996 q 522 968 501 968 q 567 988 547 968 q 587 1035 587 1008 q 573 1073 587 1058 q 541 1088 560 1088 "}," ":{"x_min":0,"x_max":0,"ha":389},"0":{"x_min":50,"x_max":726,"ha":778,"o":"m 453 1023 q 647 921 569 1023 q 726 625 726 820 q 663 268 726 425 q 508 43 600 111 q 312 -25 417 -25 q 179 15 238 -25 q 85 137 120 56 q 50 348 50 218 q 112 735 50 567 q 260 953 168 884 q 453 1023 351 1023 m 436 847 q 359 812 394 847 q 268 626 308 760 q 228 348 228 492 q 255 186 228 228 q 332 144 283 144 q 423 188 376 144 q 509 361 470 232 q 548 645 548 491 q 516 800 548 754 q 436 847 485 847 "},"¾":{"x_min":56,"x_max":1127.15625,"ha":1167,"o":"m 238 871 l 120 871 q 178 981 129 941 q 301 1022 226 1022 q 418 982 373 1022 q 464 888 464 942 q 383 771 464 819 q 452 657 452 727 q 391 536 452 588 q 241 485 331 485 q 142 508 184 485 q 77 569 99 531 q 56 667 56 607 l 175 667 q 250 589 180 589 q 306 609 284 589 q 328 662 328 630 q 303 707 328 689 q 217 727 279 724 l 233 823 q 312 840 287 823 q 337 882 337 857 q 324 907 337 897 q 290 918 311 918 q 238 871 245 918 m 222 -25 l 892 1023 l 1010 1023 l 340 -25 l 222 -25 m 1007 526 l 1119 526 l 1071 195 l 1127 195 l 1111 95 l 1057 95 l 1043 0 l 931 0 l 943 95 l 691 95 l 705 190 l 1007 526 m 979 359 l 838 195 l 957 195 l 979 359 "},"@":{"x_min":22,"x_max":1039,"ha":1028,"o":"m 849 203 l 979 203 q 847 70 905 111 q 714 4 790 28 q 556 -19 638 -19 q 287 51 411 -19 q 92 244 163 122 q 22 510 22 366 q 92 780 22 655 q 286 974 163 905 q 555 1044 408 1044 q 898 913 758 1044 q 1039 608 1039 782 q 980 388 1039 480 q 820 245 921 296 q 690 206 743 206 q 627 227 651 206 q 608 278 609 242 q 463 213 548 213 q 302 281 366 213 q 239 464 239 350 q 317 688 239 589 q 525 787 395 787 q 621 764 579 787 q 692 697 663 742 l 707 769 l 840 769 l 773 373 q 767 326 767 331 q 774 312 767 318 q 790 306 781 306 q 854 338 814 306 q 920 433 895 371 q 946 569 946 495 q 897 763 946 679 q 759 895 849 847 q 552 944 669 944 q 332 889 429 944 q 178 734 234 834 q 122 514 122 634 q 178 292 122 391 q 338 136 235 192 q 567 81 440 81 q 708 108 642 81 q 849 203 775 136 m 518 356 q 615 404 576 356 q 654 513 654 452 q 622 600 654 566 q 543 634 591 634 q 447 588 488 634 q 406 477 406 542 q 437 389 406 422 q 518 356 468 356 "},"ö":{"x_min":41,"x_max":812,"ha":889,"o":"m 463 757 q 642 711 561 757 q 767 582 722 666 q 812 395 812 499 q 689 102 812 223 q 385 -19 566 -19 q 134 76 228 -19 q 41 325 41 171 q 167 634 41 511 q 463 757 294 757 m 450 585 q 280 505 339 585 q 221 332 221 425 q 269 199 221 250 q 398 149 317 149 q 573 225 513 149 q 633 401 633 302 q 582 534 633 483 q 450 585 531 585 m 346 1042 q 405 1018 381 1042 q 430 961 430 994 q 397 881 430 914 q 318 848 364 848 q 257 871 280 848 q 234 932 234 894 q 267 1009 234 976 q 346 1042 301 1042 m 647 1042 q 706 1018 682 1042 q 731 961 731 994 q 698 881 731 914 q 619 848 665 848 q 558 871 581 848 q 535 932 535 894 q 568 1009 535 976 q 647 1042 602 1042 "},"i":{"x_min":7,"x_max":344,"ha":333,"o":"m 232 1040 q 311 1007 278 1040 q 344 928 344 974 q 311 848 344 881 q 232 816 278 816 q 152 848 185 816 q 120 928 120 881 q 152 1007 120 974 q 232 1040 185 1040 m 107 738 l 287 738 l 187 0 l 7 0 l 107 738 "},"┴":{"x_min":-12.203125,"x_max":1002.40625,"ha":990,"o":"m 1002 362 l -12 362 l -12 480 l 435 480 l 435 1264 l 554 1264 l 554 480 l 1002 480 l 1002 362 "},"╧":{"x_min":-12.203125,"x_max":1002.40625,"ha":990,"o":"m 1002 491 l -12 491 l -12 609 l 435 609 l 435 1264 l 554 1264 l 554 609 l 1002 609 l 1002 491 m 1002 233 l -12 233 l -12 352 l 1002 352 l 1002 233 "},"Õ":{"x_min":56,"x_max":1114,"ha":1167,"o":"m 641 1023 q 980 890 846 1023 q 1114 554 1114 758 q 1034 260 1114 398 q 824 48 955 122 q 523 -25 693 -25 q 183 101 310 -25 q 56 433 56 227 q 207 835 56 667 q 641 1023 377 1023 m 634 846 q 438 794 527 846 q 296 644 350 742 q 242 443 242 547 q 317 235 242 320 q 533 150 392 150 q 810 265 696 150 q 925 545 925 380 q 844 763 925 681 q 634 846 764 846 m 458 1098 l 400 1210 q 502 1262 460 1248 q 586 1276 543 1276 q 668 1261 617 1276 q 782 1239 749 1239 q 903 1274 839 1239 l 960 1168 q 864 1109 890 1119 q 782 1095 823 1095 q 681 1113 740 1095 q 621 1131 633 1128 q 584 1134 604 1134 q 458 1098 518 1134 "},"╠":{"x_min":307.234375,"x_max":1003.09375,"ha":990,"o":"m 307 -421 l 307 1264 l 425 1264 l 425 -421 l 307 -421 m 564 491 l 564 1264 l 683 1264 l 683 609 l 1003 609 l 1003 491 l 564 491 m 564 -421 l 564 352 l 1003 352 l 1003 233 l 683 233 l 683 -421 l 564 -421 "},"═":{"x_min":-12.203125,"x_max":1002.40625,"ha":990,"o":"m 1002 491 l -12 491 l -12 609 l 1002 609 l 1002 491 m 1002 233 l -12 233 l -12 352 l 1002 352 l 1002 233 "},"þ":{"x_min":-5.78125,"x_max":839,"ha":917,"o":"m 174 -270 l -5 -270 l 170 1023 l 351 1023 l 299 657 q 408 735 357 713 q 522 757 459 757 q 753 649 668 757 q 839 398 839 541 q 784 190 839 289 q 637 36 729 91 q 444 -19 544 -19 q 319 12 377 -19 q 225 102 262 43 l 174 -270 m 478 596 q 363 565 413 596 q 281 471 314 535 q 248 341 248 407 q 298 201 248 254 q 429 148 348 148 q 591 219 525 148 q 658 402 658 290 q 607 542 658 489 q 478 596 557 596 "},"]":{"x_min":-82.921875,"x_max":387.359375,"ha":444,"o":"m 211 -270 l -82 -270 l -59 -97 l 49 -97 l 178 851 l 68 851 l 92 1023 l 387 1023 l 211 -270 "},"m":{"x_min":31,"x_max":1205.421875,"ha":1306,"o":"m 131 738 l 312 738 l 301 657 q 521 757 399 757 q 613 740 570 757 q 683 696 656 723 q 729 623 710 670 q 848 722 780 688 q 990 757 916 757 q 1144 694 1083 757 q 1205 533 1205 632 q 1198 440 1205 496 l 1138 0 l 958 0 l 1009 379 q 1019 480 1019 455 q 993 559 1019 532 q 919 587 967 587 q 826 554 873 587 q 754 466 779 521 q 712 279 729 412 l 674 0 l 494 0 l 548 401 q 555 485 555 450 q 527 561 555 533 q 454 590 499 590 q 364 559 410 590 q 293 477 318 529 q 253 318 267 425 l 211 0 l 31 0 l 131 738 "},"8":{"x_min":28,"x_max":718,"ha":778,"o":"m 535 536 q 651 447 609 508 q 694 301 694 385 q 650 133 694 207 q 525 17 606 59 q 340 -25 444 -25 q 116 59 205 -25 q 28 260 28 143 q 55 384 28 323 q 126 487 82 446 q 245 555 171 528 q 172 620 196 583 q 133 750 133 680 q 171 885 133 821 q 281 985 210 948 q 437 1023 353 1023 q 639 949 560 1023 q 718 775 718 875 q 672 638 718 700 q 535 536 627 575 m 433 849 q 348 815 382 849 q 315 733 315 781 q 341 660 315 689 q 412 632 368 632 q 495 665 461 632 q 529 747 529 698 q 502 821 529 794 q 433 849 476 849 m 377 460 q 261 409 309 460 q 214 283 214 358 q 253 185 214 225 q 354 146 293 146 q 467 193 421 146 q 514 310 514 241 q 473 416 514 373 q 377 460 432 460 "},"R":{"x_min":58,"x_max":758,"ha":806,"o":"m 193 998 l 367 998 q 593 970 527 998 q 716 874 675 935 q 758 728 758 812 q 696 550 758 624 q 508 447 634 476 l 726 0 l 533 0 l 320 436 l 304 436 l 245 0 l 58 0 l 193 998 m 326 599 q 525 630 479 599 q 571 723 571 661 q 552 782 571 758 q 499 815 534 806 q 357 825 464 825 l 326 599 "},"╞":{"x_min":436.09375,"x_max":1003.09375,"ha":990,"o":"m 436 -421 l 436 1264 l 554 1264 l 554 609 l 1003 609 l 1003 491 l 554 491 l 554 352 l 1003 352 l 1003 233 l 554 233 l 554 -421 l 436 -421 "},"á":{"x_min":39,"x_max":854.84375,"ha":917,"o":"m 673 738 l 854 738 l 752 0 l 573 0 l 583 79 q 473 2 524 24 q 358 -19 422 -19 q 125 88 212 -19 q 39 339 39 196 q 94 547 39 449 q 242 701 149 646 q 438 757 336 757 q 564 725 506 757 q 659 634 621 694 l 673 738 m 402 142 q 518 171 468 142 q 601 265 567 201 q 635 395 635 329 q 584 536 635 483 q 450 590 533 590 q 287 518 354 590 q 220 334 220 447 q 270 194 220 247 q 402 142 321 142 m 584 1137 l 803 1137 l 517 872 l 385 872 l 584 1137 "},"×":{"x_min":101.984375,"x_max":732.015625,"ha":834,"o":"m 417 398 l 202 184 l 101 283 l 316 498 l 102 713 l 202 813 l 417 598 l 631 813 l 732 713 l 517 498 l 732 283 l 631 184 l 417 398 "},"o":{"x_min":41,"x_max":812,"ha":889,"o":"m 463 757 q 642 711 561 757 q 767 582 722 666 q 812 395 812 499 q 689 102 812 223 q 385 -19 566 -19 q 134 76 228 -19 q 41 325 41 171 q 167 634 41 511 q 463 757 294 757 m 450 585 q 280 505 339 585 q 221 332 221 425 q 269 199 221 250 q 398 149 317 149 q 573 225 513 149 q 633 401 633 302 q 582 534 633 483 q 450 585 531 585 "},"5":{"x_min":21,"x_max":752,"ha":778,"o":"m 275 998 l 752 998 l 729 828 l 406 828 l 349 634 q 441 655 393 655 q 622 580 553 655 q 691 371 691 506 q 590 84 691 193 q 341 -25 490 -25 q 154 27 236 -25 q 21 185 71 80 l 185 259 q 266 171 228 195 q 350 147 304 147 q 459 199 416 147 q 503 337 503 251 q 469 441 503 402 q 389 481 436 481 q 287 421 325 481 l 121 467 l 275 998 "},"õ":{"x_min":41,"x_max":812,"ha":889,"o":"m 463 757 q 642 711 561 757 q 767 582 722 666 q 812 395 812 499 q 689 102 812 223 q 385 -19 566 -19 q 134 76 228 -19 q 41 325 41 171 q 167 634 41 511 q 463 757 294 757 m 450 585 q 280 505 339 585 q 221 332 221 425 q 269 199 221 250 q 398 149 317 149 q 573 225 513 149 q 633 401 633 302 q 582 534 633 483 q 450 585 531 585 m 278 875 l 220 987 q 322 1039 280 1025 q 406 1053 363 1053 q 488 1038 437 1053 q 602 1016 569 1016 q 723 1051 659 1016 l 780 945 q 684 886 710 896 q 602 872 643 872 q 501 890 560 872 q 441 908 453 905 q 404 911 424 911 q 278 875 338 911 "},"─":{"x_min":-12.203125,"x_max":1002.40625,"ha":990,"o":"m 1002 362 l -12 362 l -12 480 l 1002 480 l 1002 362 "},"7":{"x_min":116.21875,"x_max":784,"ha":778,"o":"m 161 998 l 784 998 l 773 875 l 268 -25 l 116 58 l 549 825 l 139 825 l 161 998 "},"K":{"x_min":50,"x_max":877.5,"ha":861,"o":"m 185 998 l 373 998 l 327 661 l 645 998 l 877 998 l 443 541 l 786 0 l 577 0 l 297 442 l 235 0 l 50 0 l 185 998 "},",":{"x_min":-34.59375,"x_max":240,"ha":389,"o":"m 99 181 l 240 97 l 52 -147 l -34 -94 l 99 181 "},"d":{"x_min":39,"x_max":893.59375,"ha":917,"o":"m 712 1023 l 893 1023 l 752 0 l 573 0 l 583 79 q 473 2 524 24 q 358 -19 422 -19 q 125 88 212 -19 q 39 339 39 196 q 94 547 39 449 q 242 701 149 646 q 438 757 336 757 q 564 725 506 757 q 659 634 621 694 l 712 1023 m 402 142 q 518 171 468 142 q 601 265 567 201 q 634 395 634 329 q 584 536 634 483 q 450 590 533 590 q 287 518 354 590 q 220 334 220 447 q 270 194 220 247 q 402 142 321 142 "},"¨":{"x_min":135,"x_max":632,"ha":695,"o":"m 247 1042 q 306 1018 282 1042 q 331 961 331 994 q 298 881 331 914 q 219 848 265 848 q 158 871 181 848 q 135 932 135 894 q 168 1009 135 976 q 247 1042 202 1042 m 548 1042 q 607 1018 583 1042 q 632 961 632 994 q 599 881 632 914 q 520 848 566 848 q 459 871 482 848 q 436 932 436 894 q 469 1009 436 976 q 548 1042 503 1042 "},"Ô":{"x_min":56,"x_max":1114,"ha":1167,"o":"m 641 1023 q 980 890 846 1023 q 1114 554 1114 758 q 1034 260 1114 398 q 824 48 955 122 q 523 -25 693 -25 q 183 101 310 -25 q 56 433 56 227 q 207 835 56 667 q 641 1023 377 1023 m 634 846 q 438 794 527 846 q 296 644 350 742 q 242 443 242 547 q 317 235 242 320 q 533 150 392 150 q 810 265 696 150 q 925 545 925 380 q 844 763 925 681 q 634 846 764 846 m 635 1264 l 783 1264 l 959 1073 l 756 1073 l 695 1161 l 607 1073 l 404 1073 l 635 1264 "},"E":{"x_min":35,"x_max":708,"ha":722,"o":"m 170 998 l 708 998 l 684 821 l 336 821 l 307 615 l 658 615 l 635 439 l 283 439 l 246 174 l 600 174 l 578 0 l 35 0 l 170 998 "},"Y":{"x_min":45,"x_max":887.34375,"ha":861,"o":"m 45 998 l 234 998 l 390 598 l 673 998 l 887 998 l 463 399 l 409 0 l 222 0 l 276 398 l 45 998 "},"╢":{"x_min":-12.203125,"x_max":682.96875,"ha":990,"o":"m 306 -421 l 306 362 l -12 362 l -12 480 l 306 480 l 306 1264 l 425 1264 l 425 -421 l 306 -421 m 564 -421 l 564 1264 l 682 1264 l 682 -421 l 564 -421 "},"\"":{"x_min":57,"x_max":517,"ha":500,"o":"m 480 681 l 374 681 l 337 1023 l 517 1023 l 480 681 m 200 681 l 94 681 l 57 1023 l 237 1023 l 200 681 "},"˙":{"x_min":154,"x_max":350,"ha":389,"o":"m 266 1042 q 325 1018 301 1042 q 350 961 350 994 q 317 881 350 914 q 238 848 284 848 q 177 871 200 848 q 154 932 154 894 q 187 1009 154 976 q 266 1042 221 1042 "},"ê":{"x_min":41,"x_max":816,"ha":889,"o":"m 583 216 l 742 133 q 600 21 689 62 q 404 -19 512 -19 q 138 75 235 -19 q 41 328 41 170 q 162 632 41 508 q 456 757 284 757 q 641 711 560 757 q 769 579 722 666 q 816 390 816 492 q 809 316 816 358 l 221 316 q 271 193 223 239 q 403 148 319 148 q 583 216 504 148 m 629 449 q 561 551 608 516 q 447 587 514 587 q 327 550 380 587 q 246 449 273 514 l 629 449 m 454 1041 l 602 1041 l 778 850 l 575 850 l 514 938 l 426 850 l 223 850 l 454 1041 "},"Ï":{"x_min":32,"x_max":529,"ha":389,"o":"m 174 998 l 357 998 l 218 0 l 39 0 l 174 998 m 144 1265 q 203 1241 179 1265 q 228 1184 228 1217 q 195 1104 228 1137 q 116 1071 162 1071 q 55 1094 78 1071 q 32 1155 32 1117 q 65 1232 32 1199 q 144 1265 99 1265 m 445 1265 q 504 1241 480 1265 q 529 1184 529 1217 q 496 1104 529 1137 q 417 1071 463 1071 q 356 1094 379 1071 q 333 1155 333 1117 q 366 1232 333 1199 q 445 1265 400 1265 "},"Â":{"x_min":-16,"x_max":929,"ha":1028,"o":"m 522 998 l 680 998 l 929 0 l 747 0 l 694 212 l 299 212 l 185 0 l -16 0 l 522 998 m 649 388 l 569 715 l 393 388 l 649 388 m 565 1264 l 713 1264 l 889 1073 l 686 1073 l 625 1161 l 537 1073 l 334 1073 l 565 1264 "},"╘":{"x_min":436.09375,"x_max":1003.09375,"ha":990,"o":"m 436 233 l 436 1264 l 554 1264 l 554 609 l 1003 609 l 1003 491 l 554 491 l 554 352 l 1003 352 l 1003 233 l 436 233 "},"Í":{"x_min":39,"x_max":571,"ha":389,"o":"m 174 998 l 357 998 l 218 0 l 39 0 l 174 998 m 352 1360 l 571 1360 l 285 1095 l 153 1095 l 352 1360 "},"´":{"x_min":218,"x_max":636,"ha":583,"o":"m 417 1137 l 636 1137 l 350 872 l 218 872 l 417 1137 "},"ì":{"x_min":7,"x_max":362,"ha":333,"o":"m 107 738 l 287 738 l 187 0 l 7 0 l 107 738 m 21 1137 l 238 1137 l 362 872 l 230 872 l 21 1137 "},"±":{"x_min":42,"x_max":720,"ha":762,"o":"m 296 733 l 296 987 l 466 987 l 466 733 l 720 733 l 720 563 l 466 563 l 466 309 l 296 309 l 296 563 l 42 563 l 42 733 l 296 733 m 42 170 l 720 170 l 720 0 l 42 0 l 42 170 "},"Ú":{"x_min":85.703125,"x_max":853.34375,"ha":889,"o":"m 176 998 l 364 998 l 280 381 q 269 268 269 301 q 304 180 269 211 q 405 149 339 149 q 499 172 459 149 q 546 231 528 190 q 581 394 564 272 l 663 998 l 853 998 l 772 402 q 706 138 747 218 q 588 16 665 58 q 401 -25 511 -25 q 169 54 252 -25 q 85 271 85 133 q 101 447 85 331 l 176 998 m 610 1360 l 829 1360 l 543 1095 l 411 1095 l 610 1360 "},"|":{"x_min":364,"x_max":471,"ha":834,"o":"m 364 1023 l 471 1023 l 471 -270 l 364 -270 l 364 1023 "},"§":{"x_min":40,"x_max":711,"ha":778,"o":"m 711 781 l 530 781 q 501 847 527 824 q 434 871 476 871 q 370 850 394 871 q 347 801 347 829 q 367 752 347 777 q 471 665 387 727 q 615 549 579 587 q 668 469 651 510 q 685 381 685 428 q 637 242 685 303 q 500 153 589 181 q 574 69 550 116 q 599 -34 599 22 q 510 -216 599 -144 q 300 -289 422 -289 q 165 -258 223 -289 q 73 -170 107 -227 q 40 -49 40 -114 l 40 -34 l 217 -34 q 247 -95 221 -72 q 316 -119 273 -119 q 386 -97 361 -119 q 412 -46 412 -76 q 406 -21 412 -33 q 391 2 401 -9 q 213 147 353 44 q 89 267 120 215 q 59 379 59 319 q 105 522 59 454 q 232 623 152 589 q 176 697 195 657 q 158 784 158 738 q 241 965 158 888 q 452 1042 324 1042 q 639 968 568 1042 q 711 781 711 895 m 330 542 q 248 492 277 527 q 220 418 220 458 q 232 372 220 392 q 298 311 244 353 l 407 227 q 492 273 464 244 q 520 342 520 302 q 501 400 520 372 q 418 476 482 428 l 330 542 "},"Ý":{"x_min":45,"x_max":887.34375,"ha":861,"o":"m 45 998 l 234 998 l 390 598 l 673 998 l 887 998 l 463 399 l 409 0 l 222 0 l 276 398 l 45 998 m 597 1360 l 816 1360 l 530 1095 l 398 1095 l 597 1360 "},"╪":{"x_min":-12.203125,"x_max":1002.40625,"ha":990,"o":"m 435 233 l -12 233 l -12 352 l 435 352 l 435 491 l -12 491 l -12 609 l 435 609 l 435 1264 l 554 1264 l 554 609 l 1002 609 l 1002 491 l 554 491 l 554 352 l 1002 352 l 1002 233 l 554 233 l 554 -421 l 435 -421 l 435 233 "},"b":{"x_min":29,"x_max":839,"ha":917,"o":"m 209 0 l 29 0 l 168 1023 l 347 1023 l 298 658 q 407 735 356 714 q 521 757 458 757 q 753 649 667 757 q 839 398 839 541 q 784 190 839 289 q 636 36 729 91 q 443 -19 543 -19 q 317 12 374 -19 q 223 103 260 43 l 209 0 m 477 596 q 362 565 411 596 q 279 471 313 535 q 246 341 246 408 q 296 201 246 254 q 428 148 346 148 q 591 219 524 148 q 658 402 658 290 q 607 542 658 489 q 477 596 556 596 "},"q":{"x_min":39,"x_max":819.8125,"ha":917,"o":"m 638 738 l 819 738 l 680 -270 l 501 -270 l 549 83 q 446 3 494 26 q 338 -19 398 -19 q 120 88 201 -19 q 39 339 39 196 q 91 547 39 449 q 231 701 143 646 q 415 757 319 757 q 535 726 480 757 q 625 638 589 696 l 638 738 m 387 142 q 494 172 448 142 q 570 267 539 202 q 601 400 601 332 q 555 537 601 485 q 432 590 508 590 q 281 518 343 590 q 220 334 220 447 q 266 194 220 247 q 387 142 313 142 "},"╬":{"x_min":-12.203125,"x_max":1002.40625,"ha":990,"o":"m 683 609 l 1002 609 l 1002 491 l 564 491 l 564 1264 l 683 1264 l 683 609 m 306 609 l 306 1264 l 425 1264 l 425 491 l -12 491 l -12 609 l 306 609 m 306 233 l -12 233 l -12 352 l 425 352 l 425 -421 l 306 -421 l 306 233 m 683 233 l 683 -421 l 564 -421 l 564 352 l 1002 352 l 1002 233 l 683 233 "},"Ö":{"x_min":56,"x_max":1114,"ha":1167,"o":"m 641 1023 q 980 890 846 1023 q 1114 554 1114 758 q 1034 260 1114 398 q 824 48 955 122 q 523 -25 693 -25 q 183 101 310 -25 q 56 433 56 227 q 207 835 56 667 q 641 1023 377 1023 m 634 846 q 438 794 527 846 q 296 644 350 742 q 242 443 242 547 q 317 235 242 320 q 533 150 392 150 q 810 265 696 150 q 925 545 925 380 q 844 763 925 681 q 634 846 764 846 m 525 1265 q 584 1241 560 1265 q 609 1184 609 1217 q 576 1104 609 1137 q 497 1071 543 1071 q 436 1094 459 1071 q 413 1155 413 1117 q 446 1232 413 1199 q 525 1265 480 1265 m 826 1265 q 885 1241 861 1265 q 910 1184 910 1217 q 877 1104 910 1137 q 798 1071 844 1071 q 737 1094 760 1071 q 714 1155 714 1117 q 747 1232 714 1199 q 826 1265 781 1265 "},"z":{"x_min":-49,"x_max":644,"ha":639,"o":"m 58 738 l 644 738 l 264 167 l 612 167 l 588 0 l -49 0 l 329 569 l 36 569 l 58 738 "},"╡":{"x_min":-12.203125,"x_max":554.109375,"ha":990,"o":"m 435 233 l -12 233 l -12 352 l 435 352 l 435 491 l -12 491 l -12 609 l 435 609 l 435 1264 l 554 1264 l 554 -421 l 435 -421 l 435 233 "},"╦":{"x_min":-12.203125,"x_max":1002.40625,"ha":990,"o":"m 1002 491 l -12 491 l -12 609 l 1002 609 l 1002 491 m 306 233 l -12 233 l -12 352 l 425 352 l 425 -421 l 306 -421 l 306 233 m 564 -421 l 564 352 l 1002 352 l 1002 233 l 682 233 l 682 -421 l 564 -421 "},"ã":{"x_min":39,"x_max":854.84375,"ha":917,"o":"m 673 738 l 854 738 l 752 0 l 573 0 l 583 79 q 473 2 524 24 q 358 -19 422 -19 q 125 88 212 -19 q 39 339 39 196 q 94 547 39 449 q 242 701 149 646 q 438 757 336 757 q 564 725 506 757 q 659 634 621 694 l 673 738 m 402 142 q 518 171 468 142 q 601 265 567 201 q 635 395 635 329 q 584 536 635 483 q 450 590 533 590 q 287 518 354 590 q 220 334 220 447 q 270 194 220 247 q 402 142 321 142 m 292 875 l 234 987 q 336 1039 294 1025 q 420 1053 377 1053 q 502 1038 451 1053 q 616 1016 583 1016 q 737 1051 673 1016 l 794 945 q 698 886 724 896 q 616 872 657 872 q 515 890 574 872 q 455 908 467 905 q 418 911 438 911 q 292 875 352 911 "},"╖":{"x_min":-12.203125,"x_max":682.96875,"ha":990,"o":"m 306 -421 l 306 362 l -12 362 l -12 480 l 682 480 l 682 -421 l 564 -421 l 564 362 l 425 362 l 425 -421 l 306 -421 "},"æ":{"x_min":51,"x_max":1418,"ha":1500,"o":"m 1410 314 l 812 314 q 1004 146 841 146 q 1185 214 1109 146 l 1344 132 q 1205 23 1295 66 q 1008 -19 1114 -19 q 879 0 935 -19 q 760 63 822 18 l 751 0 l 586 0 l 596 77 q 371 -19 508 -19 q 210 23 278 -19 q 96 152 142 65 q 51 339 51 240 q 106 546 51 447 q 256 701 162 645 q 451 757 351 757 q 576 724 517 757 q 672 633 634 692 l 689 757 l 854 757 l 843 674 q 1081 757 958 757 q 1318 650 1219 757 q 1418 392 1418 544 q 1410 314 1418 360 m 463 588 q 299 515 366 588 q 232 333 232 443 q 282 192 232 245 q 414 140 333 140 q 531 170 479 140 q 615 263 584 201 q 647 392 647 324 q 595 533 647 479 q 463 588 544 588 m 1231 447 q 1164 549 1211 513 q 1052 585 1117 585 q 930 551 985 585 q 834 447 875 518 l 1231 447 "},"®":{"x_min":-5,"x_max":1034,"ha":1028,"o":"m 1034 512 q 964 253 1034 373 q 774 64 894 133 q 514 -5 654 -5 q 254 64 375 -5 q 64 253 134 133 q -5 513 -5 373 q 64 772 -5 651 q 254 961 134 892 q 514 1031 374 1031 q 774 961 654 1031 q 964 772 894 892 q 1034 512 1034 651 m 927 510 q 806 803 927 683 q 515 924 686 924 q 223 803 344 924 q 102 514 102 683 q 156 310 102 404 q 307 160 211 215 q 514 106 403 106 q 720 160 624 106 q 872 309 817 215 q 927 510 927 403 m 299 796 l 550 796 q 667 778 629 796 q 727 722 704 760 q 750 631 750 684 q 736 557 750 586 q 683 500 722 528 q 726 460 714 483 q 740 383 737 438 q 749 259 745 277 q 773 227 754 242 l 631 227 q 619 265 622 250 q 616 319 616 281 q 607 412 613 394 q 586 439 601 430 q 525 448 571 448 l 424 448 l 424 227 l 299 227 l 299 796 m 424 687 l 424 552 l 528 552 q 608 568 588 552 q 628 620 628 584 q 608 671 628 656 q 529 687 589 687 l 424 687 "},"É":{"x_min":35,"x_max":747,"ha":722,"o":"m 170 998 l 708 998 l 684 821 l 336 821 l 307 615 l 658 615 l 635 439 l 283 439 l 246 174 l 600 174 l 578 0 l 35 0 l 170 998 m 528 1360 l 747 1360 l 461 1095 l 329 1095 l 528 1360 "},"~":{"x_min":68,"x_max":767,"ha":834,"o":"m 68 383 l 68 600 q 237 650 171 650 q 333 635 281 650 q 471 579 384 620 q 545 546 527 551 q 591 540 568 540 q 767 617 667 540 l 767 398 q 599 349 681 349 q 509 361 554 349 q 361 418 463 373 q 273 453 296 447 q 229 459 251 459 q 160 444 195 459 q 68 383 126 429 "},"³":{"x_min":51,"x_max":459,"ha":467,"o":"m 233 871 l 115 871 q 173 981 124 941 q 296 1022 221 1022 q 413 982 368 1022 q 459 888 459 942 q 378 771 459 819 q 447 657 447 727 q 386 536 447 588 q 236 485 326 485 q 137 508 179 485 q 72 569 94 531 q 51 667 51 607 l 170 667 q 245 589 175 589 q 301 609 279 589 q 323 662 323 630 q 298 707 323 689 q 212 727 274 724 l 228 823 q 307 840 282 823 q 332 882 332 857 q 319 907 332 897 q 285 918 306 918 q 233 871 240 918 "},"¡":{"x_min":3,"x_max":335,"ha":389,"o":"m 221 544 q 140 577 173 544 q 107 658 107 610 q 140 738 107 704 q 221 772 173 772 q 301 738 268 772 q 335 658 335 704 q 301 577 335 610 q 221 544 268 544 m 190 -270 l 3 -270 l 105 459 l 292 459 l 190 -270 "},"╩":{"x_min":-12.203125,"x_max":1002.40625,"ha":990,"o":"m 425 491 l -12 491 l -12 609 l 306 609 l 306 1264 l 425 1264 l 425 491 m 1002 491 l 564 491 l 564 1264 l 682 1264 l 682 609 l 1002 609 l 1002 491 m 1002 233 l -12 233 l -12 352 l 1002 352 l 1002 233 "},"[":{"x_min":38.21875,"x_max":510.3125,"ha":444,"o":"m 214 1023 l 510 1023 l 486 850 l 378 850 l 249 -98 l 358 -98 l 335 -270 l 38 -270 l 214 1023 "},"L":{"x_min":49,"x_max":569,"ha":611,"o":"m 184 998 l 371 998 l 259 172 l 569 172 l 547 0 l 49 0 l 184 998 "}," ":{"x_min":0,"x_max":0,"ha":389},"%":{"x_min":43.5,"x_max":1128.734375,"ha":1194,"o":"m 992 1042 l 1128 1042 l 180 -68 l 43 -68 l 855 885 q 762 871 808 876 q 669 867 715 867 q 531 875 605 867 q 540 810 540 837 q 504 679 540 742 q 408 582 468 616 q 275 548 348 548 q 123 606 182 548 q 65 753 65 664 q 164 958 65 875 q 321 1023 240 1023 q 435 1006 350 1023 q 686 978 585 978 q 843 994 766 978 q 992 1042 920 1010 m 319 903 q 225 863 263 903 q 187 764 187 823 q 215 694 187 723 q 285 665 243 665 q 377 705 338 665 q 416 802 416 745 q 389 875 416 847 q 319 903 362 903 m 913 448 q 1061 388 1002 448 q 1120 238 1120 329 q 1084 106 1120 169 q 988 9 1048 44 q 856 -25 927 -25 q 700 37 755 -25 q 645 184 645 99 q 681 312 645 249 q 781 412 718 376 q 913 448 844 448 m 898 331 q 806 291 844 331 q 768 195 768 252 q 796 120 768 148 q 868 92 825 92 q 957 133 919 92 q 996 231 996 175 q 969 303 996 276 q 898 331 942 331 "},"P":{"x_min":48,"x_max":749,"ha":778,"o":"m 183 998 l 359 998 q 584 970 518 998 q 707 873 665 935 q 749 729 749 812 q 699 564 749 638 q 568 457 650 490 q 293 421 485 423 l 235 0 l 48 0 l 183 998 m 316 597 q 515 629 468 597 q 562 722 562 660 q 543 781 562 757 q 489 814 525 804 q 348 824 454 824 l 316 597 "},"À":{"x_min":-16,"x_max":929,"ha":1028,"o":"m 522 998 l 680 998 l 929 0 l 747 0 l 694 212 l 299 212 l 185 0 l -16 0 l 522 998 m 649 388 l 569 715 l 393 388 l 649 388 m 411 1360 l 628 1360 l 752 1095 l 620 1095 l 411 1360 "},"_":{"x_min":-8,"x_max":703,"ha":695,"o":"m -8 -105 l 703 -105 l 703 -174 l -8 -174 l -8 -105 "},"┬":{"x_min":-12.203125,"x_max":1002.40625,"ha":990,"o":"m 435 362 l -12 362 l -12 480 l 1002 480 l 1002 362 l 554 362 l 554 -421 l 435 -421 l 435 362 "},"ñ":{"x_min":31,"x_max":752,"ha":834,"o":"m 131 738 l 312 738 l 301 663 q 518 757 406 757 q 675 696 614 757 q 736 543 736 635 q 724 413 736 499 l 668 0 l 488 0 l 543 403 q 551 497 551 465 q 525 565 551 541 q 453 590 500 590 q 361 558 407 590 q 291 470 315 526 q 246 261 266 415 l 211 0 l 31 0 l 131 738 m 250 875 l 192 987 q 294 1039 252 1025 q 378 1053 335 1053 q 460 1038 409 1053 q 574 1016 541 1016 q 695 1051 631 1016 l 752 945 q 656 886 682 896 q 574 872 615 872 q 473 890 532 872 q 413 908 425 905 q 376 911 396 911 q 250 875 310 911 "},"+":{"x_min":78,"x_max":756,"ha":834,"o":"m 332 584 l 332 838 l 502 838 l 502 584 l 756 584 l 756 414 l 502 414 l 502 160 l 332 160 l 332 414 l 78 414 l 78 584 l 332 584 "},"½":{"x_min":145,"x_max":1120,"ha":1167,"o":"m 186 1010 l 372 1010 l 302 497 l 178 497 l 234 906 l 145 906 l 186 1010 m 182 -25 l 852 1023 l 970 1023 l 300 -25 l 182 -25 m 875 343 l 752 343 q 806 476 755 428 q 942 525 857 525 q 1070 481 1021 525 q 1120 377 1120 438 q 1086 278 1120 330 q 914 104 1052 226 l 1097 104 l 1081 0 l 701 0 l 713 80 q 967 312 922 257 q 996 377 996 347 q 980 407 996 394 q 941 421 965 421 q 898 404 914 421 q 875 343 883 388 "},"╛":{"x_min":-12.203125,"x_max":554.109375,"ha":990,"o":"m 554 233 l -12 233 l -12 352 l 435 352 l 435 491 l -12 491 l -12 609 l 435 609 l 435 1264 l 554 1264 l 554 233 "},"Æ":{"x_min":-23.5,"x_max":1205,"ha":1250,"o":"m 519 998 l 1205 998 l 1181 821 l 829 821 l 801 613 l 1154 613 l 1131 438 l 777 438 l 740 174 l 1096 174 l 1073 0 l 535 0 l 564 213 l 293 213 l 177 0 l -23 0 l 519 998 m 587 388 l 654 880 l 387 388 l 587 388 "},"╜":{"x_min":-12.203125,"x_max":682.96875,"ha":990,"o":"m 682 362 l -12 362 l -12 480 l 306 480 l 306 1264 l 425 1264 l 425 480 l 564 480 l 564 1264 l 682 1264 l 682 362 "},"Ë":{"x_min":35,"x_max":708,"ha":722,"o":"m 170 998 l 708 998 l 684 821 l 336 821 l 307 615 l 658 615 l 635 439 l 283 439 l 246 174 l 600 174 l 578 0 l 35 0 l 170 998 m 303 1265 q 362 1241 338 1265 q 387 1184 387 1217 q 354 1104 387 1137 q 275 1071 321 1071 q 214 1094 237 1071 q 191 1155 191 1117 q 224 1232 191 1199 q 303 1265 258 1265 m 604 1265 q 663 1241 639 1265 q 688 1184 688 1217 q 655 1104 688 1137 q 576 1071 622 1071 q 515 1094 538 1071 q 492 1155 492 1117 q 525 1232 492 1199 q 604 1265 559 1265 "},"'":{"x_min":99,"x_max":279,"ha":306,"o":"m 242 681 l 136 681 l 99 1023 l 279 1023 l 242 681 "},"ª":{"x_min":49,"x_max":495.71875,"ha":500,"o":"m 361 1010 l 495 1010 l 431 549 l 298 549 l 304 590 q 248 548 271 558 q 193 539 225 539 q 91 593 133 539 q 49 742 49 647 q 115 941 49 860 q 263 1022 182 1022 q 309 1010 289 1022 q 355 966 329 999 l 361 1010 m 249 654 q 308 686 285 654 q 338 796 338 730 q 318 875 338 848 q 269 903 298 903 q 208 865 235 903 q 181 759 181 827 q 201 681 181 708 q 249 654 221 654 "},"╟":{"x_min":307.234375,"x_max":1003.09375,"ha":990,"o":"m 564 -421 l 564 1264 l 683 1264 l 683 480 l 1003 480 l 1003 362 l 683 362 l 683 -421 l 564 -421 m 307 -421 l 307 1264 l 425 1264 l 425 -421 l 307 -421 "},"˛":{"x_min":89,"x_max":340.921875,"ha":472,"o":"m 231 0 l 328 0 q 217 -121 217 -61 q 234 -160 217 -145 q 279 -175 251 -175 q 340 -156 302 -175 l 326 -264 q 237 -275 277 -275 q 125 -243 162 -275 q 89 -163 89 -212 q 124 -74 89 -118 q 231 0 160 -29 "},"ð":{"x_min":39,"x_max":816,"ha":889,"o":"m 670 1023 l 706 923 l 606 892 q 760 661 704 789 q 816 413 816 532 q 694 104 816 228 q 396 -19 573 -19 q 139 82 239 -19 q 39 336 39 183 q 156 624 39 502 q 428 747 273 747 q 531 731 475 747 q 459 845 501 791 l 325 805 l 288 904 l 386 935 q 302 1023 346 979 l 465 1023 q 520 976 493 1001 l 670 1023 m 451 584 q 285 512 352 584 q 218 334 218 441 q 268 200 218 252 q 400 149 319 149 q 570 224 505 149 q 635 403 635 299 q 583 532 635 480 q 451 584 531 584 "},"T":{"x_min":30.9375,"x_max":663,"ha":583,"o":"m 54 998 l 663 998 l 641 820 l 432 820 l 320 0 l 135 0 l 246 820 l 30 820 l 54 998 "},"╙":{"x_min":307.234375,"x_max":1002.40625,"ha":990,"o":"m 1002 362 l 307 362 l 307 1264 l 425 1264 l 425 480 l 564 480 l 564 1264 l 683 1264 l 683 480 l 1002 480 l 1002 362 "},"Þ":{"x_min":48,"x_max":723,"ha":778,"o":"m 183 998 l 371 998 l 345 787 q 532 768 478 785 q 670 677 618 742 q 723 518 723 611 q 673 354 723 427 q 541 246 624 280 q 265 210 458 213 l 235 0 l 48 0 l 183 998 m 288 387 q 489 418 442 387 q 536 511 536 449 q 517 570 536 546 q 463 603 498 594 q 321 613 427 613 l 288 387 "},"╨":{"x_min":-12.203125,"x_max":1002.40625,"ha":990,"o":"m 1002 362 l -12 362 l -12 480 l 306 480 l 306 1264 l 425 1264 l 425 480 l 564 480 l 564 1264 l 682 1264 l 682 480 l 1002 480 l 1002 362 "},"j":{"x_min":-131.703125,"x_max":367,"ha":361,"o":"m 255 1040 q 334 1007 301 1040 q 367 928 367 974 q 334 848 367 881 q 255 816 301 816 q 175 848 208 816 q 143 928 143 881 q 175 1007 143 974 q 255 1040 208 1040 m 130 738 l 311 738 l 222 83 q 169 -162 196 -100 q 94 -256 142 -224 q -17 -289 45 -289 q -131 -262 -66 -289 l -110 -99 q -50 -119 -77 -119 q -1 -93 -18 -119 q 38 61 21 -56 l 130 738 "},"┌":{"x_min":436.09375,"x_max":1003.09375,"ha":990,"o":"m 1003 480 l 1003 362 l 554 362 l 554 -421 l 436 -421 l 436 480 l 1003 480 "},"1":{"x_min":220.375,"x_max":575.515625,"ha":778,"o":"m 279 998 l 575 998 l 439 0 l 257 0 l 369 824 l 220 824 l 279 998 "},"ä":{"x_min":39,"x_max":854.84375,"ha":917,"o":"m 673 738 l 854 738 l 752 0 l 573 0 l 583 79 q 473 2 524 24 q 358 -19 422 -19 q 125 88 212 -19 q 39 339 39 196 q 94 547 39 449 q 242 701 149 646 q 438 757 336 757 q 564 725 506 757 q 659 634 621 694 l 673 738 m 402 142 q 518 171 468 142 q 601 265 567 201 q 635 395 635 329 q 584 536 635 483 q 450 590 533 590 q 287 518 354 590 q 220 334 220 447 q 270 194 220 247 q 402 142 321 142 m 359 1042 q 418 1018 394 1042 q 443 961 443 994 q 410 881 443 914 q 331 848 377 848 q 270 871 293 848 q 247 932 247 894 q 280 1009 247 976 q 359 1042 314 1042 m 660 1042 q 719 1018 695 1042 q 744 961 744 994 q 711 881 744 914 q 632 848 678 848 q 571 871 594 848 q 548 932 548 894 q 581 1009 548 976 q 660 1042 615 1042 "},"<":{"x_min":78,"x_max":756,"ha":834,"o":"m 756 248 l 756 78 l 78 423 l 78 573 l 756 919 l 756 749 l 272 498 l 756 248 "},"£":{"x_min":-17.640625,"x_max":730,"ha":778,"o":"m 723 738 l 541 738 q 544 774 544 759 q 522 829 544 808 q 461 851 500 851 q 382 816 413 851 q 352 722 352 782 q 367 589 352 688 l 587 589 l 565 418 l 376 418 q 361 307 376 354 q 300 165 342 244 q 370 157 313 165 q 436 152 411 152 q 533 226 504 152 l 714 226 q 602 39 679 103 q 426 -25 526 -25 q 274 -12 379 -25 q 142 0 176 0 q -17 -28 78 0 l 5 142 q 101 164 53 157 q 173 317 158 271 q 192 418 188 362 l 42 418 l 64 589 l 173 589 q 155 723 155 666 q 245 937 155 852 q 481 1023 335 1023 q 663 960 597 1023 q 730 799 730 897 q 723 738 730 775 "},"¹":{"x_min":140,"x_max":367.609375,"ha":481,"o":"m 181 1010 l 367 1010 l 297 497 l 173 497 l 229 906 l 140 906 l 181 1010 "},"t":{"x_min":20.453125,"x_max":425.828125,"ha":416,"o":"m 167 1012 l 348 1012 l 311 738 l 425 738 l 404 582 l 289 582 l 210 0 l 30 0 l 109 582 l 20 582 l 41 738 l 130 738 l 167 1012 "},"¬":{"x_min":78,"x_max":756,"ha":834,"o":"m 78 728 l 756 728 l 756 268 l 586 269 l 586 559 l 78 558 l 78 728 "},"ù":{"x_min":75.546875,"x_max":769.1875,"ha":834,"o":"m 134 738 l 313 738 l 262 360 q 254 267 254 298 q 287 185 254 218 q 375 152 321 152 q 483 194 445 152 q 538 368 520 237 l 588 738 l 769 738 l 715 341 q 653 133 696 206 q 539 20 610 59 q 371 -19 467 -19 q 155 59 235 -19 q 75 261 75 137 q 93 457 75 337 l 134 738 m 271 1137 l 488 1137 l 612 872 l 480 872 l 271 1137 "},"W":{"x_min":89,"x_max":1285,"ha":1250,"o":"m 89 998 l 259 998 l 317 351 l 621 998 l 762 998 l 882 368 l 1103 998 l 1285 998 l 934 0 l 779 0 l 653 660 l 342 0 l 178 0 l 89 998 "},"╥":{"x_min":-12.203125,"x_max":1002.40625,"ha":990,"o":"m 306 -421 l 306 362 l -12 362 l -12 480 l 1002 480 l 1002 362 l 682 362 l 682 -421 l 564 -421 l 564 352 l 425 352 l 425 -421 l 306 -421 "},"ï":{"x_min":-44,"x_max":453,"ha":333,"o":"m 107 738 l 287 738 l 187 0 l 7 0 l 107 738 m 68 1042 q 127 1018 103 1042 q 152 961 152 994 q 119 881 152 914 q 40 848 86 848 q -20 871 2 848 q -44 932 -44 894 q -10 1009 -44 976 q 68 1042 23 1042 m 369 1042 q 428 1018 404 1042 q 453 961 453 994 q 420 881 453 914 q 341 848 387 848 q 280 871 303 848 q 257 932 257 894 q 290 1009 257 976 q 369 1042 324 1042 "},">":{"x_min":78,"x_max":756,"ha":834,"o":"m 78 749 l 78 917 l 756 572 l 756 423 l 78 78 l 78 248 l 561 498 l 78 749 "},"v":{"x_min":37.96875,"x_max":764.171875,"ha":778,"o":"m 37 738 l 215 738 l 330 327 l 566 738 l 764 738 l 336 0 l 248 0 l 37 738 "},"û":{"x_min":75.546875,"x_max":769.1875,"ha":834,"o":"m 134 738 l 313 738 l 262 360 q 254 267 254 298 q 287 185 254 218 q 375 152 321 152 q 483 194 445 152 q 538 368 520 237 l 588 738 l 769 738 l 715 341 q 653 133 696 206 q 539 20 610 59 q 371 -19 467 -19 q 155 59 235 -19 q 75 261 75 137 q 93 457 75 337 l 134 738 m 426 1041 l 574 1041 l 750 850 l 547 850 l 486 938 l 398 850 l 195 850 l 426 1041 "},"Ò":{"x_min":56,"x_max":1114,"ha":1167,"o":"m 641 1023 q 980 890 846 1023 q 1114 554 1114 758 q 1034 260 1114 398 q 824 48 955 122 q 523 -25 693 -25 q 183 101 310 -25 q 56 433 56 227 q 207 835 56 667 q 641 1023 377 1023 m 634 846 q 438 794 527 846 q 296 644 350 742 q 242 443 242 547 q 317 235 242 320 q 533 150 392 150 q 810 265 696 150 q 925 545 925 380 q 844 763 925 681 q 634 846 764 846 m 479 1360 l 696 1360 l 820 1095 l 688 1095 l 479 1360 "},"╒":{"x_min":436.09375,"x_max":1003.09375,"ha":990,"o":"m 436 -421 l 436 609 l 1003 609 l 1003 491 l 554 491 l 554 352 l 1003 352 l 1003 233 l 554 233 l 554 -421 l 436 -421 "},"&":{"x_min":44,"x_max":888.265625,"ha":945,"o":"m 769 399 l 868 265 q 789 203 830 232 l 750 174 l 792 122 q 888 0 857 42 l 666 0 q 600 76 631 37 q 447 1 528 27 q 294 -25 366 -25 q 119 46 194 -25 q 44 216 44 118 q 95 370 44 299 q 288 522 146 440 q 239 633 251 593 q 228 714 228 673 q 305 885 228 814 q 494 957 382 957 q 651 896 589 957 q 714 744 714 835 q 670 602 714 671 q 528 467 627 534 q 644 310 595 368 q 769 399 716 358 m 438 608 q 541 736 541 677 q 524 770 541 755 q 480 785 507 785 q 425 763 447 785 q 403 714 403 742 q 438 608 403 667 m 378 374 q 272 306 325 345 q 231 261 244 286 q 221 223 221 242 q 244 167 221 189 q 307 145 268 145 q 389 162 340 145 q 494 213 401 167 q 456 265 481 229 l 378 374 "},"˝":{"x_min":346.59375,"x_max":1067,"ha":973,"o":"m 546 1138 l 765 1138 l 479 873 l 346 873 l 546 1138 m 848 1138 l 1067 1138 l 782 873 l 648 873 l 848 1138 "},"Ð":{"x_min":70,"x_max":967,"ha":1031,"o":"m 156 441 l 70 441 l 85 554 l 171 554 l 231 998 l 389 998 q 721 945 613 998 q 898 780 830 892 q 967 520 967 667 q 894 242 967 369 q 712 58 822 116 q 405 0 602 0 l 96 0 l 156 441 m 344 441 l 308 174 l 369 174 q 577 197 513 174 q 721 313 667 231 q 776 516 776 395 q 737 682 776 615 q 629 785 698 749 q 444 822 560 822 l 396 822 l 359 554 l 578 554 l 564 441 l 344 441 "},"I":{"x_min":39,"x_max":357.703125,"ha":389,"o":"m 174 998 l 357 998 l 218 0 l 39 0 l 174 998 "},"ˉ":{"x_min":221,"x_max":627,"ha":583,"o":"m 221 873 l 242 1023 l 627 1023 l 605 873 l 221 873 "},"G":{"x_min":59,"x_max":1075,"ha":1167,"o":"m 1045 811 l 889 710 q 758 817 821 787 q 615 848 695 848 q 334 708 442 848 q 248 463 248 598 q 336 240 248 330 q 554 150 424 150 q 729 196 650 150 q 858 337 808 243 l 546 337 l 570 514 l 1075 514 q 920 120 1064 266 q 552 -25 775 -25 q 170 143 309 -25 q 59 464 59 278 q 222 857 59 691 q 613 1023 386 1023 q 777 998 697 1023 q 921 929 857 974 q 1045 811 986 885 "},"`":{"x_min":147,"x_max":488,"ha":583,"o":"m 147 1137 l 364 1137 l 488 872 l 356 872 l 147 1137 "},"·":{"x_min":371,"x_max":567,"ha":463,"o":"m 483 593 q 542 569 518 593 q 567 512 567 545 q 534 432 567 465 q 455 399 501 399 q 394 422 417 399 q 371 483 371 445 q 404 560 371 527 q 483 593 438 593 "},"╔":{"x_min":307.234375,"x_max":1002.40625,"ha":990,"o":"m 425 -421 l 307 -421 l 307 609 l 1002 609 l 1002 491 l 425 491 l 425 -421 m 683 233 l 683 -421 l 564 -421 l 564 352 l 1002 352 l 1002 233 l 683 233 "},"r":{"x_min":-11,"x_max":462.296875,"ha":444,"o":"m 89 738 l 250 738 l 237 638 q 411 757 309 757 q 462 744 435 757 l 396 579 q 366 587 375 587 q 271 525 313 587 q 205 277 229 464 l 169 0 l -11 0 l 89 738 "},"¿":{"x_min":1,"x_max":660,"ha":778,"o":"m 430 544 q 349 577 383 544 q 316 658 316 610 q 349 738 316 704 q 430 772 383 772 q 510 738 477 772 q 544 658 544 704 q 510 577 544 610 q 430 544 477 544 m 482 8 l 660 8 q 602 -145 650 -77 q 476 -251 555 -213 q 296 -289 396 -289 q 83 -210 166 -289 q 1 -23 1 -132 q 165 235 1 115 q 258 311 239 290 q 290 368 276 332 q 308 457 303 403 l 482 457 q 441 261 479 334 q 303 121 403 189 q 201 37 222 67 q 180 -21 180 7 q 216 -91 180 -61 q 315 -121 253 -121 q 482 8 450 -121 "},"┐":{"x_min":-12.203125,"x_max":554.109375,"ha":990,"o":"m 435 362 l -12 362 l -12 480 l 554 480 l 554 -421 l 435 -421 l 435 362 "},"ý":{"x_min":28.453125,"x_max":799.5,"ha":806,"o":"m 29 738 l 208 738 l 351 299 l 604 738 l 799 738 l 219 -270 l 28 -270 l 237 100 l 29 738 m 529 1137 l 748 1137 l 462 872 l 330 872 l 529 1137 "},"x":{"x_min":-19.5625,"x_max":733,"ha":778,"o":"m 41 738 l 239 738 l 368 527 l 523 738 l 733 738 l 463 372 l 692 0 l 494 0 l 355 225 l 190 0 l -19 0 l 260 380 l 41 738 "},"è":{"x_min":41,"x_max":816,"ha":889,"o":"m 583 216 l 742 133 q 600 21 689 62 q 404 -19 512 -19 q 138 75 235 -19 q 41 328 41 170 q 162 632 41 508 q 456 757 284 757 q 641 711 560 757 q 769 579 722 666 q 816 390 816 492 q 809 316 816 358 l 221 316 q 271 193 223 239 q 403 148 319 148 q 583 216 504 148 m 629 449 q 561 551 608 516 q 447 587 514 587 q 327 550 380 587 q 246 449 273 514 l 629 449 m 299 1137 l 516 1137 l 640 872 l 508 872 l 299 1137 "},"º":{"x_min":47,"x_max":496,"ha":500,"o":"m 292 1022 q 437 960 379 1022 q 496 796 496 898 q 424 613 496 687 q 248 539 352 539 q 102 597 157 539 q 47 754 47 656 q 119 944 47 867 q 292 1022 192 1022 m 282 900 q 210 861 240 900 q 181 758 181 822 q 202 684 181 710 q 258 658 223 658 q 332 696 302 658 q 363 799 363 734 q 339 873 363 846 q 282 900 316 900 "},"╝":{"x_min":-12.203125,"x_max":682.96875,"ha":990,"o":"m 564 1264 l 682 1264 l 682 233 l -12 233 l -12 352 l 564 352 l 564 1264 m 306 609 l 306 1264 l 425 1264 l 425 491 l -12 491 l -12 609 l 306 609 "},"Ø":{"x_min":56,"x_max":1114,"ha":1167,"o":"m 998 870 q 1114 555 1114 738 q 1035 261 1114 399 q 824 49 956 123 q 524 -25 693 -25 q 264 36 371 -25 l 173 -67 l 91 0 l 181 102 q 56 433 56 231 q 133 731 56 595 q 343 945 210 868 q 635 1023 476 1023 q 916 943 800 1023 l 1002 1042 l 1084 971 l 998 870 m 307 246 l 794 804 q 631 846 723 846 q 438 793 526 846 q 295 644 349 741 q 242 443 242 546 q 307 246 242 329 m 872 729 l 390 180 q 535 150 452 150 q 811 265 697 150 q 925 544 925 381 q 872 729 925 651 "},"÷":{"x_min":42,"x_max":719,"ha":762,"o":"m 272 900 l 490 900 l 490 682 l 272 682 l 272 900 m 42 584 l 719 584 l 719 414 l 42 414 l 42 584 m 272 316 l 490 316 l 490 98 l 272 98 l 272 316 "},"h":{"x_min":31,"x_max":736.515625,"ha":834,"o":"m 170 1023 l 351 1023 l 301 663 q 518 757 406 757 q 675 696 614 757 q 736 543 736 635 q 724 413 736 499 l 668 0 l 488 0 l 543 403 q 551 497 551 465 q 525 565 551 541 q 453 590 500 590 q 362 558 407 590 q 292 470 316 526 q 247 260 267 414 l 211 0 l 31 0 l 170 1023 "},".":{"x_min":25,"x_max":253,"ha":389,"o":"m 139 209 q 219 175 185 209 q 253 95 253 142 q 219 14 253 48 q 139 -19 185 -19 q 58 14 91 -19 q 25 95 25 48 q 58 175 25 142 q 139 209 91 209 "},";":{"x_min":-35,"x_max":331,"ha":389,"o":"m 217 757 q 297 723 263 757 q 331 643 331 690 q 297 563 331 596 q 217 530 263 530 q 136 563 169 530 q 103 643 103 596 q 135 724 103 691 q 217 757 168 757 m 99 181 l 240 97 l 52 -147 l -35 -94 l 99 181 "},"f":{"x_min":16,"x_max":464,"ha":389,"o":"m 37 738 l 116 738 q 158 935 135 882 q 222 1015 182 989 q 321 1042 262 1042 q 464 997 398 1042 l 443 849 q 367 883 405 883 q 325 862 338 883 q 297 738 312 841 l 410 738 l 390 582 l 277 582 l 196 0 l 16 0 l 95 582 l 17 582 l 37 738 "},"A":{"x_min":-16,"x_max":929,"ha":1028,"o":"m 522 998 l 680 998 l 929 0 l 747 0 l 694 212 l 299 212 l 185 0 l -16 0 l 522 998 m 649 388 l 569 715 l 393 388 l 649 388 "},"6":{"x_min":50,"x_max":703,"ha":778,"o":"m 458 1023 l 600 926 l 361 591 q 426 601 397 601 q 621 516 540 601 q 703 305 703 431 q 607 69 703 164 q 363 -25 511 -25 q 139 64 228 -25 q 50 285 50 154 q 63 386 50 337 q 119 520 83 456 q 249 729 182 635 l 458 1023 m 379 442 q 270 397 315 442 q 225 288 225 352 q 266 188 225 229 q 369 147 308 147 q 477 191 433 147 q 521 301 521 236 q 480 401 521 361 q 379 442 440 442 "},"O":{"x_min":56,"x_max":1114,"ha":1167,"o":"m 641 1023 q 980 890 846 1023 q 1114 554 1114 758 q 1034 260 1114 398 q 824 48 955 122 q 523 -25 693 -25 q 183 101 310 -25 q 56 433 56 227 q 207 835 56 667 q 641 1023 377 1023 m 634 846 q 438 794 527 846 q 296 644 350 742 q 242 443 242 547 q 317 235 242 320 q 533 150 392 150 q 810 265 696 150 q 925 545 925 380 q 844 763 925 681 q 634 846 764 846 "},"n":{"x_min":31,"x_max":736.515625,"ha":834,"o":"m 131 738 l 312 738 l 301 663 q 518 757 406 757 q 675 696 614 757 q 736 543 736 635 q 724 413 736 499 l 668 0 l 488 0 l 543 403 q 551 497 551 465 q 525 565 551 541 q 453 590 500 590 q 361 558 407 590 q 291 470 315 526 q 246 261 266 415 l 211 0 l 31 0 l 131 738 "},"║":{"x_min":307.234375,"x_max":683.65625,"ha":990,"o":"m 564 -421 l 564 1264 l 683 1264 l 683 -421 l 564 -421 m 307 -421 l 307 1264 l 425 1264 l 425 -421 l 307 -421 "},"3":{"x_min":38,"x_max":701,"ha":778,"o":"m 320 757 l 148 757 q 243 951 162 879 q 441 1023 324 1023 q 572 990 514 1023 q 666 896 631 957 q 701 772 701 836 q 662 645 701 707 q 546 536 624 583 q 681 305 681 453 q 581 72 681 169 q 338 -25 481 -25 q 123 65 208 -25 q 38 304 38 155 l 214 304 q 249 193 221 228 q 353 147 289 147 q 459 197 420 147 q 499 316 499 247 q 477 390 499 356 q 421 442 456 424 q 313 465 386 460 l 336 621 q 468 660 423 621 q 514 758 514 699 q 488 825 514 799 q 423 851 462 851 q 355 826 384 851 q 320 757 327 801 "},"╣":{"x_min":-12.203125,"x_max":682.96875,"ha":990,"o":"m 564 -421 l 564 1264 l 682 1264 l 682 -421 l 564 -421 m 425 1264 l 425 491 l -12 491 l -12 609 l 306 609 l 306 1264 l 425 1264 m 306 233 l -12 233 l -12 352 l 425 352 l 425 -421 l 306 -421 l 306 233 "},"9":{"x_min":82,"x_max":736,"ha":778,"o":"m 327 -25 l 184 70 l 424 405 q 359 397 388 397 q 163 481 244 397 q 82 692 82 566 q 177 928 82 833 q 421 1023 273 1023 q 646 933 556 1023 q 736 712 736 843 q 722 611 736 660 q 666 477 702 541 q 536 267 603 362 l 327 -25 m 406 556 q 515 600 469 556 q 561 707 561 645 q 519 808 561 767 q 416 849 477 849 q 307 804 351 849 q 264 695 264 760 q 304 596 264 636 q 406 556 344 556 "},"l":{"x_min":10,"x_max":330.015625,"ha":333,"o":"m 149 1023 l 330 1023 l 190 0 l 10 0 l 149 1023 "},"¤":{"x_min":65,"x_max":771,"ha":834,"o":"m 65 289 l 135 359 q 86 457 100 413 q 73 555 73 502 q 87 658 73 611 q 136 753 101 704 l 65 823 l 146 908 l 219 836 q 316 885 266 869 q 419 902 367 902 q 518 886 470 902 q 617 837 567 871 l 688 908 l 769 823 l 699 754 q 749 658 734 705 q 765 555 765 610 q 749 454 765 500 q 700 359 734 407 l 771 289 l 690 207 l 618 277 q 520 225 569 241 q 418 209 472 209 q 315 225 364 209 q 217 277 267 241 l 146 207 l 65 289 m 206 554 q 268 401 206 464 q 418 339 331 339 q 568 402 506 339 q 631 556 631 465 q 568 709 631 646 q 419 773 506 773 q 269 709 332 773 q 206 554 206 645 "},"4":{"x_min":5,"x_max":719.109375,"ha":778,"o":"m 544 1023 l 715 1023 l 620 354 l 719 354 l 697 192 l 597 192 l 570 0 l 400 0 l 425 192 l 5 192 l 27 354 l 544 1023 m 496 711 l 224 354 l 447 354 l 496 711 "},"p":{"x_min":-5.78125,"x_max":839,"ha":917,"o":"m 174 -270 l -5 -270 l 131 738 l 310 738 l 299 657 q 408 735 357 713 q 522 757 459 757 q 753 649 668 757 q 839 398 839 541 q 784 190 839 289 q 636 36 729 91 q 444 -19 544 -19 q 319 12 376 -19 q 224 103 261 43 l 174 -270 m 478 596 q 364 565 413 596 q 282 471 315 535 q 248 341 248 407 q 298 201 248 254 q 430 148 348 148 q 591 219 525 148 q 658 402 658 290 q 607 542 658 489 q 478 596 557 596 "},"│":{"x_min":306.5625,"x_max":425.25,"ha":861,"o":"m 306 -421 l 306 1264 l 425 1264 l 425 -421 l 306 -421 "},"à":{"x_min":39,"x_max":854.84375,"ha":917,"o":"m 673 738 l 854 738 l 752 0 l 573 0 l 583 79 q 473 2 524 24 q 358 -19 422 -19 q 125 88 212 -19 q 39 339 39 196 q 94 547 39 449 q 242 701 149 646 q 438 757 336 757 q 564 725 506 757 q 659 634 621 694 l 673 738 m 402 142 q 518 171 468 142 q 601 265 567 201 q 635 395 635 329 q 584 536 635 483 q 450 590 533 590 q 287 518 354 590 q 220 334 220 447 q 270 194 220 247 q 402 142 321 142 m 312 1137 l 529 1137 l 653 872 l 521 872 l 312 1137 "},"Ü":{"x_min":85.703125,"x_max":853.34375,"ha":889,"o":"m 176 998 l 364 998 l 280 381 q 269 268 269 301 q 304 180 269 211 q 405 149 339 149 q 499 172 459 149 q 546 231 528 190 q 581 394 564 272 l 663 998 l 853 998 l 772 402 q 706 138 747 218 q 588 16 665 58 q 401 -25 511 -25 q 169 54 252 -25 q 85 271 85 133 q 101 447 85 331 l 176 998 m 409 1265 q 468 1241 444 1265 q 493 1184 493 1217 q 460 1104 493 1137 q 381 1071 427 1071 q 320 1094 343 1071 q 297 1155 297 1117 q 330 1232 297 1199 q 409 1265 364 1265 m 710 1265 q 769 1241 745 1265 q 794 1184 794 1217 q 761 1104 794 1137 q 682 1071 728 1071 q 621 1094 644 1071 q 598 1155 598 1117 q 631 1232 598 1199 q 710 1265 665 1265 "},"ó":{"x_min":41,"x_max":812,"ha":889,"o":"m 463 757 q 642 711 561 757 q 767 582 722 666 q 812 395 812 499 q 689 102 812 223 q 385 -19 566 -19 q 134 76 228 -19 q 41 325 41 171 q 167 634 41 511 q 463 757 294 757 m 450 585 q 280 505 339 585 q 221 332 221 425 q 269 199 221 250 q 398 149 317 149 q 573 225 513 149 q 633 401 633 302 q 582 534 633 483 q 450 585 531 585 m 571 1137 l 790 1137 l 504 872 l 372 872 l 571 1137 "}}}
